<svg width="21" height="15" viewBox="0 0 21 15" fill="none" xmlns="http://www.w3.org/2000/svg">
<path d="M3.99338 4.88508C3.92991 4.33646 3.43371 3.94316 2.88508 4.00662C2.33646 4.07009 1.94316 4.56629 2.00663 5.11492L3.99338 4.88508ZM3.85594 12.3989L2.86256 12.5138L2.86258 12.5139L3.85594 12.3989ZM5.71875 14L5.71839 15H5.71875V14ZM15.2812 14L15.2814 13H15.2812V14ZM17.145 12.3989L18.1384 12.5139L18.1384 12.5137L17.145 12.3989ZM18.9934 5.11479C19.0568 4.56616 18.6634 4.07001 18.1148 4.00661C17.5662 3.94321 17.07 4.33657 17.0066 4.88521L18.9934 5.11479ZM1 3.5C0.447715 3.5 0 3.94772 0 4.5C0 5.05228 0.447715 5.5 1 5.5V3.5ZM20 5.5C20.5523 5.5 21 5.05228 21 4.5C21 3.94772 20.5523 3.5 20 3.5V5.5ZM3.10557 4.55279C2.85858 5.04676 3.05881 5.64744 3.55279 5.89443C4.04676 6.14142 4.64744 5.94119 4.89443 5.44721L3.10557 4.55279ZM6.89443 1.44721C7.14142 0.953235 6.94119 0.352562 6.44721 0.105573C5.95324 -0.141416 5.35256 0.0588079 5.10557 0.552786L6.89443 1.44721ZM16.1056 5.44721C16.3526 5.94119 16.9532 6.14142 17.4472 5.89443C17.9412 5.64744 18.1414 5.04676 17.8944 4.55279L16.1056 5.44721ZM15.8944 0.552786C15.6474 0.0588079 15.0468 -0.141416 14.5528 0.105573C14.0588 0.352562 13.8586 0.953235 14.1056 1.44721L15.8944 0.552786ZM6.5 10C6.5 10.5523 6.94772 11 7.5 11C8.05228 11 8.5 10.5523 8.5 10H6.5ZM8.5 8C8.5 7.44772 8.05228 7 7.5 7C6.94772 7 6.5 7.44772 6.5 8H8.5ZM9.5 10C9.5 10.5523 9.94771 11 10.5 11C11.0523 11 11.5 10.5523 11.5 10H9.5ZM11.5 8C11.5 7.44772 11.0523 7 10.5 7C9.94771 7 9.5 7.44772 9.5 8H11.5ZM12.5 10C12.5 10.5523 12.9477 11 13.5 11C14.0523 11 14.5 10.5523 14.5 10H12.5ZM14.5 8C14.5 7.44772 14.0523 7 13.5 7C12.9477 7 12.5 7.44772 12.5 8H14.5ZM2.00663 5.11492L2.86256 12.5138L4.84931 12.284L3.99338 4.88508L2.00663 5.11492ZM2.86258 12.5139C3.03016 13.961 4.28802 14.9995 5.71839 15L5.71911 13C5.23931 12.9998 4.89279 12.6594 4.8493 12.2839L2.86258 12.5139ZM5.71875 15H15.2812V13H5.71875V15ZM15.2811 15C16.712 15.0002 17.9707 13.9615 18.1384 12.5139L16.1516 12.2839C16.1081 12.6595 15.7614 13.0001 15.2814 13L15.2811 15ZM18.1384 12.5137L18.9934 5.11479L17.0066 4.88521L16.1516 12.2841L18.1384 12.5137ZM1 5.5H20V3.5H1V5.5ZM4.89443 5.44721L6.89443 1.44721L5.10557 0.552786L3.10557 4.55279L4.89443 5.44721ZM17.8944 4.55279L15.8944 0.552786L14.1056 1.44721L16.1056 5.44721L17.8944 4.55279ZM8.5 10V8H6.5V10H8.5ZM11.5 10V8H9.5V10H11.5ZM14.5 10V8H12.5V10H14.5Z" fill="white"/>
</svg>
