<svg width="40" height="40" viewBox="0 0 40 40" fill="none" xmlns="http://www.w3.org/2000/svg">
<circle cx="20" cy="20" r="19" stroke="#02E602" stroke-width="2"/>
<path d="M21.7575 15.2655C22.44 15.3803 23.0904 15.4786 23.6846 15.7572C24.0941 15.9457 24.4795 16.167 24.5839 16.6669C24.608 16.7981 24.7445 16.8063 24.8328 16.8636C25.9569 17.5193 26.8803 18.3716 27.4584 19.5681C28.5263 21.7972 27.9803 24.4443 26.1255 26.1736C25.154 27.0833 23.9977 27.6979 22.8415 28.3126C22.5605 28.4601 22.2875 28.6404 21.9984 28.7879C21.5166 29.0338 21.2436 29.4435 21.0831 29.9435C20.7298 31.0252 20.6013 32.1562 20.4808 33.2872C20.4327 33.7215 20.4005 34.1641 20.3604 34.5984C20.3363 34.8279 20.248 35 19.9991 35C19.7582 35 19.6618 34.8361 19.6297 34.6066C19.445 33.2708 19.2042 31.9431 18.8669 30.6401C18.6421 29.7632 18.1523 29.1075 17.4618 28.5666C16.7391 28.0011 15.9282 27.5668 15.1493 27.0833C14.4106 26.6243 13.696 26.1326 13.1339 25.4442C12.1945 24.2886 11.9054 22.9282 12.0258 21.4776C12.1945 19.3468 13.4069 17.9208 15.1332 16.8718C15.2858 16.7735 15.4223 16.6997 15.4705 16.4866C15.5427 16.1916 15.7836 16.0277 16.0325 15.8802C16.5705 15.5688 17.1647 15.4294 17.7749 15.3311C17.9837 15.2983 18.08 15.2737 18.0238 15.0033C17.6866 13.2822 17.3735 11.553 17.0523 9.82379C16.972 9.38944 17.1005 9.22553 17.534 9.24192C17.7749 9.25012 17.791 9.15997 17.7428 8.96328C17.6143 8.3978 17.51 7.82412 17.3815 7.25864C17.3172 6.98819 17.4136 6.82428 17.6545 6.73414C18.2246 6.50466 18.7866 6.27519 19.3567 6.05392C19.694 5.92279 19.8786 6.02933 19.9348 6.38993C19.983 6.67677 20.0232 6.95541 20.0473 7.24225C20.0633 7.46353 20.1195 7.57006 20.3684 7.55367C20.7458 7.52909 21.1312 7.54548 21.5086 7.54548C21.894 7.54548 22.0145 7.66841 22.0145 8.06179C22.0145 9.12719 22.0225 10.1926 22.0064 11.258C22.0064 11.4711 22.0707 11.594 22.2313 11.7087C22.6086 11.9792 22.6167 12.0284 22.4962 12.4709C22.2714 13.4052 22.0145 14.3313 21.7575 15.2655ZM27.1854 22.8544C26.792 23.1331 26.4387 23.338 26.0533 23.4773C25.2022 23.7805 24.3269 23.7969 23.4437 23.7969C23.2028 23.7969 23.0262 23.715 23.0101 23.4445C22.9941 23.2068 23.1546 23.0675 23.4517 23.0593C23.8131 23.0511 24.1744 23.0593 24.5357 23.0347C25.5153 22.9692 26.3985 22.6823 27.1132 21.9366C27.2336 21.8054 27.2898 21.6907 27.2657 21.5022C27.065 19.6009 25.965 18.3716 24.4153 17.4701C24.3189 17.4127 24.2547 17.4373 24.1744 17.4947C23.8934 17.7078 23.5802 17.8307 23.251 17.929C21.878 18.347 20.4728 18.4126 19.0516 18.3224C18.0961 18.265 17.1085 18.2077 16.2814 17.7159C15.7033 17.3635 15.3581 17.5684 14.9486 17.888C14.8281 17.9782 14.7077 18.0683 14.5872 18.1667C14.0171 18.642 14.0091 18.6994 14.6194 19.1583C15.4384 19.7812 16.3778 20.0844 17.3895 20.1336C17.6384 20.15 17.799 20.2483 17.791 20.5188C17.783 20.7728 17.6224 20.8876 17.3895 20.8712C16.0245 20.7974 14.796 20.3712 13.7923 19.396C13.6478 19.2485 13.5916 19.2157 13.4631 19.4124C12.5237 20.8302 12.4916 23.1085 13.3909 24.5427C13.9288 25.395 14.7157 25.9523 15.5427 26.4604C16.3617 26.9603 17.1968 27.4111 17.9516 28.0093C18.7304 28.6322 19.3166 29.378 19.5494 30.386C19.6538 30.8531 19.7903 31.3121 19.9188 31.8284C20.0232 31.1891 20.1436 30.5991 20.2962 30.0172C20.5371 29.1157 21.0108 28.4109 21.8619 28.0012C22.2473 27.8127 22.6247 27.5914 23.0021 27.3865C23.9415 26.8866 24.8729 26.3539 25.6518 25.5999C26.4387 24.8705 26.9767 23.9936 27.1854 22.8544ZM21.348 11.9546C21.3159 12.0365 21.2918 12.1021 21.2677 12.1759C20.9064 13.2659 20.5451 14.3558 20.1838 15.454C20.1035 15.6835 19.967 15.831 19.71 15.7654C19.4932 15.7081 19.3888 15.4786 19.5093 15.2164C19.6618 14.8885 19.5815 14.5853 19.5173 14.2657C19.2363 12.9135 18.9553 11.5694 18.6742 10.2172C18.6582 10.1352 18.6742 10.0041 18.5538 10.0041C18.3209 9.9959 18.0961 10.0123 17.8632 10.0287C17.8632 10.0287 17.8552 10.1188 17.8632 10.168C18.2005 11.9874 18.5297 13.7986 18.875 15.6179C18.9472 15.9949 19.2363 16.2162 19.6859 16.2736C20.2319 16.3391 20.6896 16.167 20.8502 15.831C20.8743 15.7818 20.8903 15.7409 20.8984 15.6917C21.1553 14.7246 21.4203 13.7658 21.6772 12.7987C21.8218 12.2742 21.8218 12.2742 21.348 11.9546ZM19.983 17.6258C20.6173 17.634 21.2436 17.5848 21.8699 17.4947C22.4481 17.4127 23.0181 17.298 23.5401 17.0193C23.6605 16.9538 23.8371 16.9046 23.8371 16.7489C23.8291 16.6178 23.6605 16.5686 23.5481 16.5112C22.978 16.2244 22.3517 16.1097 21.7254 16.0195C21.5809 15.9949 21.5407 16.0769 21.4845 16.1834C20.8903 17.216 19.1158 17.3226 18.4333 16.3391C18.2487 16.0687 18.0881 16.0195 17.8151 16.0851C17.3172 16.1998 16.8114 16.2981 16.3617 16.5604C16.0807 16.7243 16.0807 16.7899 16.3698 16.9702C16.5785 17.0931 16.8034 17.1832 17.0362 17.2488C17.9997 17.5356 18.9874 17.6094 19.983 17.6258ZM20.0151 13.1101C20.0392 13.1101 20.0713 13.1101 20.0954 13.1101C20.0232 12.5774 19.9589 12.0447 19.8867 11.512C19.702 10.0533 19.5173 8.59449 19.3326 7.13571C19.3085 6.96361 19.2764 6.87346 19.0757 6.9718C18.875 7.07834 18.6582 7.1603 18.4333 7.22586C18.2085 7.29142 18.1443 7.40616 18.2005 7.64382C18.3129 8.10276 18.4092 8.5617 18.4895 9.02065C18.5217 9.20914 18.5939 9.2829 18.7866 9.25831C19.0918 9.21734 19.2363 9.36485 19.3005 9.67628C19.5334 10.8236 19.7743 11.9628 20.0151 13.1101ZM20.6816 11.6104C20.6976 11.5776 20.7137 11.5448 20.7298 11.5038C20.8181 11.2498 20.8663 10.9548 21.2436 10.9793C21.3641 10.9875 21.3159 10.8564 21.3159 10.7827C21.3239 10.1926 21.3159 9.59432 21.3159 9.00426C21.3159 8.28306 21.3159 8.29945 20.6173 8.29126C20.4005 8.29126 20.3604 8.35682 20.3524 8.56171C20.3042 9.58613 20.529 10.586 20.6816 11.6104Z" fill="#02E602"/>
</svg>
