<svg width="40" height="40" viewBox="0 0 40 40" fill="none" xmlns="http://www.w3.org/2000/svg">
<circle cx="20" cy="20" r="19" stroke="#02E602" stroke-width="2"/>
<path d="M20.1379 35.9927C17.7701 35.4507 16.067 33.9713 14.6552 32.1329C13.3032 30.3752 12.25 28.4563 11.63 26.3323C11.0997 24.5014 10.9428 22.6337 11.0175 20.7368C11.0773 19.2427 11.2864 17.7633 11.645 16.3131C11.8168 15.6027 12.1156 15.4489 12.7878 15.7419C13.2584 15.9469 13.7141 16.1886 14.1846 16.4084C14.2817 16.4523 14.3789 16.4962 14.4685 16.5402C14.6254 15.654 14.7673 14.7898 14.9465 13.9329C15.3275 12.1312 15.8728 10.3807 16.799 8.76945C17.2621 7.96381 17.8149 7.23141 18.5843 6.67479C19.8317 5.76662 21.236 5.77394 22.4685 6.70409C23.208 7.26071 23.7532 7.98578 24.2014 8.76945C25.1799 10.4686 25.7327 12.3216 26.1137 14.2185C26.2705 14.9802 26.3826 15.7492 26.5245 16.5475C26.6291 16.4962 26.7262 16.4523 26.8158 16.4084C27.3312 16.1593 27.8466 15.903 28.377 15.676C28.8177 15.4855 29.1911 15.6467 29.2882 16.1154C29.5049 17.1554 29.729 18.1954 29.8634 19.2501C30.0427 20.6636 30.0352 22.0918 29.9008 23.5199C29.6991 25.578 29.1164 27.5115 28.1379 29.3425C27.2939 30.9098 26.3228 32.3893 25.0156 33.6417C23.9325 34.6817 22.715 35.502 21.236 35.9048C21.109 35.9414 20.9895 35.9707 20.8625 36C20.616 35.9927 20.377 35.9927 20.1379 35.9927ZM18.3154 8.67424C18.6888 9.26748 18.4946 9.66297 17.7925 9.75086C17.7103 9.75818 17.5983 9.84607 17.5684 9.91931C17.3368 10.4247 17.1277 10.9447 16.9111 11.45C16.8438 11.5965 16.8438 11.699 16.9708 11.8382C17.2771 12.1678 17.1127 12.6731 16.6646 12.783C16.4928 12.8269 16.4405 12.9075 16.4106 13.054C16.2986 13.5593 16.1865 14.0647 16.0595 14.5627C16.0222 14.7092 16.0371 14.7971 16.1716 14.9069C16.5152 15.1779 16.4704 15.7199 16.067 15.8737C15.8354 15.9616 15.7682 16.0861 15.7682 16.2985C15.7682 16.401 15.7533 16.5182 15.7234 16.6134C15.5665 17.0968 15.7309 17.4117 16.1865 17.6461C16.4629 17.7926 16.687 17.9903 17.0455 17.9757C17.3667 17.9684 17.546 18.2027 17.6132 18.5177C17.6356 18.6495 17.7103 18.7813 17.7999 18.8765C18.4647 19.5796 19.137 20.2681 19.8093 20.9565C19.9064 21.0518 20.0408 21.1323 20.1678 21.1689C20.5189 21.2568 20.7206 21.5351 20.6758 21.8794C20.6608 22.0112 20.6832 22.1577 20.743 22.2749C21.0716 22.934 21.4078 23.5785 21.7589 24.2304C21.8186 24.3476 21.9381 24.4574 22.0502 24.516C22.3564 24.6698 22.5282 24.9994 22.3714 25.2923C22.2743 25.4754 22.2967 25.6219 22.3639 25.7904C22.9166 27.3284 23.2752 28.8957 23.3275 30.529C23.3424 31.005 23.3275 31.4738 23.3275 32.0084C23.8952 30.9245 24.2761 29.8332 24.5824 28.6907C24.4703 28.6833 24.3956 28.6833 24.3284 28.676C23.9773 28.6321 23.7532 28.3977 23.7607 28.0755C23.7682 27.7532 23.9997 27.5262 24.3508 27.4969C24.4479 27.4895 24.5525 27.4822 24.6496 27.4969C24.8214 27.5115 24.8961 27.4529 24.926 27.2771C25.0007 26.7938 25.0978 26.3177 25.165 25.8343C25.1799 25.7391 25.1202 25.6 25.053 25.5267C24.7318 25.2045 24.7841 24.765 25.1799 24.538C25.2472 24.5014 25.3443 24.4354 25.3517 24.3768C25.419 23.7104 25.4638 23.0439 25.5161 22.3847C25.0306 22.2602 24.8588 22.0991 24.8513 21.7768C24.8438 21.4692 24.9783 21.3301 25.4115 21.1689C25.4638 21.147 25.531 21.0664 25.531 21.0078C25.5385 20.4073 25.5385 19.7994 25.5385 19.2134C24.7691 19.0303 24.5973 18.8985 24.6123 18.5396C24.6272 18.1881 24.8289 18.027 25.4264 17.9317C25.3592 17.3165 25.292 16.7013 25.2024 16.0861C25.1949 16.0275 25.0978 15.9616 25.0231 15.9323C24.545 15.7346 24.4554 15.2438 24.8363 14.8996C24.9036 14.8337 24.9708 14.7019 24.9484 14.6213C24.8438 14.094 24.7243 13.574 24.5824 13.054C24.56 12.9588 24.4479 12.8489 24.3508 12.8196C23.8802 12.6731 23.7308 12.2044 24.0446 11.8235C24.0968 11.7576 24.1491 11.6258 24.1193 11.5526C23.9026 10.9959 23.6636 10.454 23.4246 9.90466C23.3947 9.83875 23.3051 9.78016 23.2304 9.76551C22.4909 9.65565 22.3041 9.3041 22.6851 8.68888C21.4302 6.72606 19.5404 6.72606 18.3154 8.67424ZM12.7505 16.9723C12.7057 17.1408 12.6832 17.214 12.6683 17.2946C12.5563 18.0343 12.4143 18.774 12.3396 19.521C12.123 21.5644 12.1753 23.6005 12.6832 25.6C13.236 27.7678 14.3116 29.6941 15.6636 31.4811C16.5675 32.6749 17.658 33.6856 19.0324 34.3521C19.391 34.5279 19.7719 34.6451 20.2201 34.8208C20.1305 34.6231 20.0931 34.5279 20.0483 34.4327C18.7187 31.569 17.3966 28.698 16.0745 25.8343C16.0147 25.7098 15.9624 25.5853 15.94 25.4535C15.8802 25.1385 16.067 24.8749 16.3807 24.7943C16.7169 24.7064 16.9633 24.8602 17.1501 25.2704C18.3452 27.8557 19.5404 30.4338 20.7355 33.0191C20.9372 33.4513 21.1389 33.8834 21.363 34.3668C21.4675 34.1763 21.5796 34.0445 21.6169 33.8907C21.7738 33.2682 21.968 32.6456 22.0502 32.0158C22.2369 30.5656 22.0651 29.1301 21.6916 27.7239C21.1912 25.8563 20.504 24.0619 19.4059 22.4506C18.3154 20.8467 16.8961 19.5503 15.2677 18.481C14.4685 17.9464 13.6244 17.4923 12.7505 16.9723ZM28.25 17.0089C27.7271 17.2872 27.249 17.5363 26.7785 17.8072C26.7112 17.8439 26.6589 17.9757 26.6589 18.0636C26.6664 18.4078 26.6963 18.7447 26.7112 19.0889C26.8233 21.3447 26.7336 23.5932 26.405 25.8343C26.1211 27.7825 25.6729 29.6867 24.911 31.5104C24.799 31.7741 24.6795 32.0377 24.56 32.2941C28.5936 27.8704 29.5049 22.7216 28.25 17.0089Z" fill="#02E602"/>
<path d="M20.9579 10C20.8036 9.98786 20.6184 9.98786 20.4409 9.9514C20.1476 9.89063 19.9856 9.69615 20.001 9.45913C20.0164 9.24034 20.2017 9.04586 20.4872 9.02155C20.8113 8.99724 21.1432 8.99117 21.4673 9.01548C21.7914 9.03979 21.9921 9.22819 21.9998 9.47128C22.0075 9.72653 21.8223 9.91493 21.4827 9.96963C21.3207 9.99394 21.1509 9.98786 20.9579 10Z" fill="#02E602"/>
<path d="M23.008 21.9903C22.8491 21.9903 22.6826 22.0087 22.5237 21.9842C22.1983 21.9415 21.9789 21.7218 22.0016 21.4715C22.0243 21.2274 22.2438 21.032 22.5691 21.0137C22.8491 20.9954 23.1367 20.9954 23.4166 21.0137C23.7647 21.032 23.9842 21.2213 23.9993 21.4776C24.0144 21.7462 23.7874 21.9537 23.4393 21.9903C23.2956 22.0087 23.1518 21.9965 23.008 21.9903C23.008 21.9965 23.008 21.9903 23.008 21.9903Z" fill="#02E602"/>
<path d="M19.9769 19C19.8309 18.9938 19.6696 18.9938 19.5082 18.9752C19.2162 18.938 19.0164 18.7585 19.001 18.5232C18.9856 18.2817 19.147 18.0588 19.439 18.0279C19.8079 17.9907 20.1921 17.9907 20.561 18.0279C20.853 18.0588 21.0144 18.2879 20.999 18.5232C20.9836 18.7647 20.7761 18.9504 20.4611 18.9814C20.2997 18.9938 20.146 18.9938 19.9769 19Z" fill="#02E602"/>
<path d="M22.9794 19C22.833 18.9938 22.6713 18.9938 22.5095 18.9752C22.2168 18.938 22.0165 18.7585 22.0011 18.5232C21.9856 18.2817 22.1397 18.0588 22.4402 18.0279C22.8099 17.9907 23.1951 17.9907 23.5649 18.0279C23.8653 18.0588 24.0271 18.2941 23.9963 18.548C23.9655 18.7832 23.7652 18.9504 23.4647 18.9814C23.303 18.9938 23.1489 18.9938 22.9794 19Z" fill="#02E602"/>
<path d="M18.981 12.9945C18.8332 12.9945 18.6932 13.0069 18.5454 12.9945C18.2265 12.9636 18.0165 12.7842 18.0009 12.5367C17.9853 12.2769 18.172 12.0541 18.4987 12.0232C18.8254 11.9923 19.1599 11.9923 19.4866 12.0232C19.79 12.0479 20 12.2769 20 12.512C20 12.7594 19.7666 12.9698 19.4477 12.9945C19.2921 13.0007 19.1366 12.9945 18.981 12.9945Z" fill="#02E602"/>
<path d="M22.0307 12.0079C22.1779 12.0079 22.3251 11.9956 22.4646 12.0079C22.8055 12.0509 23.0147 12.2601 22.9992 12.5247C22.9837 12.777 22.7667 12.9677 22.4258 12.9862C22.1469 13.0046 21.868 13.0046 21.589 12.9862C21.2481 12.9677 21.0079 12.7585 21.0002 12.5063C20.9924 12.254 21.2326 12.0386 21.5658 12.0017C21.7208 11.9956 21.8757 12.0079 22.0307 12.0079Z" fill="#02E602"/>
<path d="M17.9103 16C17.8038 15.9878 17.6318 15.9878 17.468 15.9572C17.1567 15.8959 16.9847 15.7 17.0011 15.4673C17.0175 15.2346 17.2222 15.0448 17.5417 15.0203C17.8202 14.9958 18.1069 14.9958 18.3854 15.008C18.7622 15.0325 18.9916 15.2285 18.9998 15.4857C19.008 15.7428 18.7786 15.9388 18.41 15.9816C18.2626 15.9939 18.1233 15.9939 17.9103 16Z" fill="#02E602"/>
<path d="M20.997 16C20.8162 15.9818 20.6271 15.9818 20.4463 15.9454C20.1422 15.8786 19.9778 15.6844 20.0024 15.4476C20.0271 15.2291 20.2244 15.047 20.5285 15.0227C20.8079 14.9984 21.0956 14.9924 21.3751 15.0106C21.7532 15.0349 21.9916 15.223 21.9998 15.478C22.008 15.7451 21.7779 15.9454 21.3915 15.9818C21.26 15.9939 21.1285 15.9818 20.997 15.9818C21.0052 15.9879 20.997 15.9939 20.997 16Z" fill="#02E602"/>
<path d="M22.9103 16C22.8038 15.9878 22.6318 15.9878 22.468 15.9572C22.1567 15.8959 21.9847 15.7 22.0011 15.4673C22.0175 15.2346 22.2222 15.0448 22.5417 15.0203C22.8202 14.9958 23.1069 14.9958 23.3854 15.008C23.7622 15.0325 23.9916 15.2285 23.9998 15.4857C24.008 15.7428 23.7786 15.9388 23.41 15.9878C23.2626 15.9939 23.1233 15.9939 22.9103 16Z" fill="#02E602"/>
<path d="M24.0045 24C24.645 24 24.9912 24.1707 24.9998 24.4939C25.0085 24.8231 24.6623 25 23.9959 25C23.3554 25 23.0092 24.8292 23.0006 24.5061C22.9833 24.1768 23.3468 24 24.0045 24Z" fill="#02E602"/>
<path d="M15.4851 25C15.4414 24.9524 15.2993 24.8859 15.2392 24.7337C15.1353 24.4674 15.0533 24.1631 15.0096 23.8493C14.9659 23.5164 15.0752 23.2311 15.2556 23.0885C15.4359 22.9363 15.6327 22.9743 15.7474 23.2501C15.8622 23.5259 15.9496 23.8683 15.9934 24.2011C16.0425 24.6196 15.813 24.9905 15.4851 25Z" fill="#02E602"/>
</svg>
