<svg width="28" height="19" viewBox="0 0 28 19" fill="none" xmlns="http://www.w3.org/2000/svg">
<path d="M27.9854 5.88242C27.8032 6.09975 27.672 6.40401 27.3586 6.44024C27.0307 6.47646 27.0379 6.66481 27.0525 6.89663C27.0598 7.05601 27.0598 7.22263 27.0525 7.382C27.0452 7.95431 26.6735 8.33101 26.0977 8.35275C25.8718 8.35999 25.6386 8.36723 25.4126 8.35275C25.245 8.3455 25.1794 8.38172 25.1794 8.57008C25.1867 9.66397 25.1867 10.7579 25.1794 11.859C25.1794 12.0184 25.2159 12.0981 25.3908 12.0691C25.4782 12.0546 25.573 12.0619 25.6604 12.0691C25.9228 12.0908 26.1123 12.2792 26.1123 12.5255C26.1123 12.7501 25.9374 12.9819 25.6969 12.9819C25.0409 12.9964 24.385 12.9964 23.729 12.9819C23.4739 12.9746 23.3063 12.7501 23.3209 12.4965C23.3355 12.2575 23.5031 12.0908 23.7655 12.0691C24.2538 12.0329 24.2538 12.0329 24.2538 11.5403C24.2538 10.5695 24.2465 9.60602 24.2611 8.63527C24.2611 8.40346 24.1882 8.33826 23.9695 8.35999C23.7582 8.38172 23.5541 8.36723 23.3427 8.35999C22.7597 8.33826 22.4026 7.96879 22.388 7.38924C22.3734 6.81694 22.3734 6.81694 21.7976 6.95458C20.1286 7.34578 18.5835 8.01226 17.1039 8.86709C16.7687 9.06269 16.6958 9.3742 16.5209 9.65673C16.8926 9.89579 17.2205 10.1711 17.4902 10.5188C17.738 10.8303 17.7963 11.178 17.6287 11.533C17.4538 11.8952 17.1477 12.0619 16.7468 12.0619C14.9101 12.0619 13.0662 12.0619 11.2295 12.0619C10.8287 12.0619 10.5225 11.888 10.3549 11.5258C10.1946 11.178 10.2456 10.8376 10.4861 10.5333C10.7266 10.2218 11.0109 9.95375 11.3388 9.74366C11.4482 9.67846 11.4336 9.635 11.4044 9.51909C11.2951 9.12065 10.989 8.93954 10.661 8.75119C9.15963 7.87462 7.56348 7.2516 5.86529 6.8749C5.64664 6.82419 5.56647 6.8749 5.59563 7.09947C5.6102 7.19365 5.60291 7.29507 5.59563 7.39649C5.58105 7.96879 5.21663 8.33826 4.63357 8.35999C4.38576 8.36723 4.13796 8.36723 3.89744 8.35999C3.76625 8.35275 3.72981 8.40346 3.72981 8.53385C3.7371 9.65673 3.7371 10.7796 3.72981 11.9025C3.72981 12.0256 3.76625 12.0836 3.89744 12.0763C4.00677 12.0691 4.11609 12.0691 4.22542 12.0763C4.48051 12.0981 4.64814 12.2647 4.66272 12.511C4.6773 12.7646 4.50966 12.9819 4.24728 12.9891C3.59862 13.0036 2.95725 13.0036 2.30858 12.9891C2.05349 12.9819 1.86399 12.7573 1.87128 12.5183C1.87857 12.2719 2.06807 12.0908 2.33045 12.0691C2.80419 12.0329 2.80419 12.0329 2.80419 11.5548C2.80419 10.5695 2.7969 9.58429 2.81148 8.59181C2.81148 8.40345 2.76775 8.33826 2.57096 8.35275C2.34502 8.36723 2.11909 8.36723 1.88586 8.35275C1.31008 8.32377 0.945662 7.94706 0.938374 7.37476C0.938374 7.27334 0.931085 7.17191 0.938374 7.07774C0.967527 6.75174 0.974817 6.4837 0.522939 6.38228C0.180387 6.30259 0.0200429 5.96211 0.00546626 5.59264C-0.00182209 5.30287 -0.00182209 5.0131 0.00546626 4.72332C0.00546626 4.09306 0.391749 3.71636 1.03312 3.70911C1.5506 3.70911 2.07536 3.69462 2.59283 3.71636C2.83334 3.7236 2.94267 3.67289 2.99369 3.41934C3.08115 2.97019 3.20505 2.52104 3.32895 2.07913C3.37997 1.89802 3.33624 1.85456 3.14674 1.85456C2.27214 1.8618 1.39754 1.8618 0.522939 1.85456C0.216829 1.85456 0.0200434 1.67345 0.012755 1.40541C0.0054667 1.13012 0.209539 0.941768 0.530226 0.927279C0.595821 0.927279 0.654128 0.927279 0.719723 0.927279C1.6089 0.927279 2.50537 0.927279 3.39455 0.927279C3.56218 0.927279 3.6715 0.905546 3.76625 0.738925C3.94846 0.427418 4.23999 0.217332 4.58255 0.094178C4.64085 0.0724449 4.7356 0.0796879 4.76475 0C4.9834 0 5.20205 0 5.42071 0C5.86529 0.144887 6.28073 0.325998 6.52125 0.753415C6.60871 0.905546 6.71803 0.927279 6.87109 0.927279C7.77484 0.920035 8.67131 0.927279 9.57506 0.927279C10.0415 0.927279 10.2675 1.07941 10.2747 1.39092C10.2747 1.70242 10.0488 1.85456 9.58235 1.85456C8.70046 1.85456 7.81857 1.85456 6.90753 1.85456C7.05329 2.45584 7.19906 3.03539 7.34483 3.60769C7.37398 3.73809 7.48331 3.70187 7.56348 3.70187C8.74419 3.70187 9.93219 3.70187 11.1129 3.70187C11.2368 3.70187 11.3024 3.66564 11.3607 3.54974C11.6231 3.03539 12.0677 2.78183 12.6362 2.77459C13.5399 2.76735 14.4364 2.76735 15.3401 2.77459C15.9232 2.78183 16.3751 3.03539 16.6448 3.55698C16.6958 3.6584 16.7468 3.70187 16.8707 3.70187C18.0733 3.69462 19.2759 3.70187 20.4784 3.70187C20.5586 3.70187 20.6388 3.70911 20.6679 3.60045C20.8064 3.0209 20.9522 2.44859 21.0979 1.85456C20.2233 1.85456 19.3779 1.85456 18.5324 1.85456C18.4304 1.85456 18.3357 1.85456 18.2336 1.85456C17.9421 1.84731 17.7307 1.65171 17.738 1.39092C17.738 1.13012 17.9494 0.934524 18.2482 0.934524C19.1519 0.92728 20.0484 0.920033 20.9522 0.941767C21.2364 0.949011 21.4405 0.898301 21.5935 0.63026C21.7102 0.412929 21.9361 0.289776 22.1547 0.173866C22.2641 0.115911 22.4026 0.123155 22.4827 0.0144896C22.7014 0.0144896 22.92 0.0144896 23.1387 0.0144896C23.5978 0.144888 24.0133 0.34773 24.2611 0.775147C24.3485 0.920034 24.4433 0.941767 24.5891 0.941767C25.5147 0.934522 26.4476 0.949013 27.3732 0.934524C27.6574 0.92728 27.8615 1.01421 28 1.26052C28 1.3547 28 1.44163 28 1.5358C27.8688 1.78936 27.6647 1.87629 27.3805 1.86905C26.5569 1.85456 25.726 1.87629 24.9025 1.8618C24.6619 1.85456 24.6401 1.91975 24.6984 2.13709C24.8296 2.59348 24.9389 3.06436 25.0482 3.528C25.0847 3.68013 25.143 3.73084 25.3033 3.73084C25.7843 3.71636 26.2654 3.74533 26.7464 3.7236C27.3295 3.68738 27.7668 3.86849 28 4.4263C27.9854 4.90443 27.9854 5.39705 27.9854 5.88242ZM12.126 6.4837C12.126 7.23711 12.126 7.98328 12.126 8.7367C12.126 9.1134 12.2936 9.28727 12.6726 9.28727C13.5472 9.29451 14.4218 9.29451 15.2964 9.28727C15.6827 9.28727 15.843 9.1134 15.843 8.7367C15.843 7.2516 15.843 5.76651 15.843 4.28142C15.843 3.89022 15.6754 3.71636 15.2818 3.71636C14.4145 3.71636 13.5545 3.71636 12.6872 3.71636C12.2936 3.71636 12.126 3.88298 12.126 4.28142C12.126 5.02034 12.126 5.75202 12.126 6.4837ZM16.7832 7.96879C16.8998 7.91084 16.98 7.87462 17.0529 7.83115C17.9712 7.30956 18.926 6.8749 19.9245 6.52717C22.0163 5.78824 24.1809 5.52745 26.3893 5.57091C26.6006 5.57816 26.8849 5.67233 27.0161 5.52745C27.1181 5.40429 27.0379 5.129 27.0598 4.92616C27.0817 4.70159 27.0161 4.63639 26.7828 4.64363C25.1138 4.65812 23.4521 4.65088 21.783 4.65088C20.2015 4.65088 18.6126 4.65088 17.031 4.65088C16.878 4.65088 16.7832 4.65812 16.7832 4.86096C16.7905 5.87517 16.7832 6.89663 16.7832 7.96879ZM11.2004 7.98328C11.2004 6.93285 11.1931 5.93313 11.2077 4.94065C11.2077 4.70159 11.1566 4.64363 10.9088 4.64363C7.81857 4.65088 4.7356 4.65088 1.64534 4.65088C0.887356 4.65088 0.894645 4.65088 0.923798 5.41154C0.931086 5.54193 0.967527 5.57816 1.09143 5.57816C1.49958 5.57091 1.90772 5.57816 2.32316 5.57816C4.75747 5.57816 7.08974 6.04904 9.31997 7.02703C9.95406 7.29507 10.559 7.61382 11.2004 7.98328ZM21.5863 3.71636C22.4026 3.71636 23.1824 3.71636 23.9695 3.71636C24.108 3.71636 24.1153 3.66564 24.0862 3.54974C23.9112 2.86877 23.7436 2.18055 23.5614 1.49958C23.4666 1.14461 23.1897 0.934523 22.8544 0.927279C22.5192 0.927279 22.2349 1.14461 22.1402 1.49234C21.958 2.23126 21.7758 2.9557 21.5863 3.71636ZM6.39734 3.71636C6.20785 2.96294 6.03293 2.23126 5.84343 1.50683C5.74868 1.15185 5.47172 0.941767 5.13646 0.941767C4.8012 0.941767 4.52424 1.15185 4.42949 1.50683C4.24728 2.1878 4.08694 2.87601 3.90473 3.55698C3.86829 3.70187 3.91202 3.7236 4.04321 3.7236C4.80849 3.71636 5.58105 3.71636 6.39734 3.71636ZM11.1931 11.1273C13.0808 11.1273 14.9174 11.1273 16.7978 11.1273C16.3824 10.584 15.8941 10.2363 15.2308 10.2218C14.4291 10.2073 13.6274 10.2145 12.833 10.2218C12.1333 10.2218 11.6304 10.5623 11.1931 11.1273ZM3.24878 7.43271C3.53303 7.43271 3.80998 7.43271 4.09423 7.43271C4.68458 7.43271 4.6773 7.43271 4.66272 6.84592C4.66272 6.69379 4.6117 6.65757 4.45865 6.63583C3.83185 6.55614 3.21234 6.52717 2.58554 6.50543C1.84213 6.4837 1.84942 6.4837 1.85671 7.22987C1.85671 7.40373 1.91501 7.43996 2.07536 7.43996C2.46164 7.42547 2.85521 7.43271 3.24878 7.43271ZM24.7202 7.43271C24.9535 7.43271 25.194 7.43996 25.4272 7.43271C25.6532 7.42547 25.9593 7.53413 26.0759 7.382C26.1852 7.24436 26.0977 6.94734 26.1196 6.72276C26.1342 6.5489 26.0832 6.49094 25.8937 6.49094C25.2231 6.50543 24.5453 6.51992 23.8748 6.58512C23.2917 6.63583 23.299 6.63583 23.3063 7.22987C23.3063 7.382 23.35 7.43271 23.5031 7.43271C23.9185 7.42547 24.3194 7.43271 24.7202 7.43271Z" fill="#02E602"/>
<path d="M17.6546 14.9995C17.3974 14.981 16.9301 13.8259 17.0088 13.4008C17.0823 13.0034 17.3869 12.8556 17.5549 13.1698C17.7071 13.4655 17.8437 13.7982 17.9592 14.1493C18.0852 14.5374 17.9014 15.018 17.6546 14.9995Z" fill="#02E602"/>
<path d="M10 13.6783C10 13.7245 9.97908 13.8446 9.93724 13.9462C9.82741 14.2141 9.72282 14.4912 9.60253 14.7498C9.47702 15.0362 9.28874 15.0731 9.13708 14.8791C8.99064 14.6852 8.95403 14.3434 9.06386 14.057C9.17368 13.7707 9.28874 13.4936 9.40903 13.2257C9.50316 13.0133 9.63391 12.9486 9.77512 13.041C9.91632 13.1334 9.98954 13.3181 10 13.6783Z" fill="#02E602"/>
<path d="M6.6423 17.0001C6.90437 16.9906 7.08621 17.4978 6.95785 17.8901C6.85088 18.2155 6.72252 18.5218 6.57812 18.8089C6.46581 19.0385 6.30536 19.0577 6.16095 18.8854C6.01655 18.7132 5.95772 18.4548 6.03259 18.1677C6.13421 17.7944 6.28396 17.4691 6.43906 17.1533C6.49255 17.048 6.57277 17.0193 6.6423 17.0001Z" fill="#02E602"/>
<path d="M19.3394 15.0001C19.6048 14.9905 20.0762 15.5555 19.9895 15.7825C19.9082 16.0046 19.5994 16.0771 19.4206 15.9032C19.2744 15.7631 19.1498 15.6038 19.0414 15.4348C18.9168 15.2416 19.0902 15.005 19.3394 15.0001Z" fill="#02E602"/>
<path d="M21.3439 17C21.6052 17 22.0678 17.5631 21.9916 17.7815C21.9154 17.9999 21.5997 18.0776 21.4201 17.9077C21.2786 17.7718 21.1534 17.6164 21.0445 17.4563C20.9139 17.2573 21.088 17.0049 21.3439 17Z" fill="#02E602"/>
<path d="M8.35397 15.9993C8.08455 15.9993 7.91211 15.7519 8.04682 15.5481C8.14921 15.388 8.27853 15.2376 8.41325 15.0969C8.52641 14.9805 8.68806 14.9708 8.83355 15.0581C8.97904 15.1406 9.0437 15.2716 8.96827 15.4171C8.87127 15.6112 8.72039 15.7761 8.55874 15.9314C8.51024 15.9847 8.42941 16.0041 8.35397 15.9993Z" fill="#02E602"/>
<path d="M14.9981 18.5105C14.9981 18.5365 14.9981 18.5626 14.9981 18.5886C14.9903 18.849 14.7973 19 14.4961 19C14.195 19 14.0097 18.8438 14.0019 18.5834C14.0019 18.4949 13.9942 18.4011 14.0097 18.3126C14.0405 18.1251 14.249 17.9949 14.5039 18.0002C14.7587 18.0002 14.9595 18.1303 14.9903 18.323C15.0058 18.3803 14.9981 18.4428 14.9981 18.5105Z" fill="#02E602"/>
<path d="M14.9931 13.5026C15.0009 13.8377 14.8457 14 14.5043 14C14.1707 14 14 13.8377 14 13.5079C14 13.445 14 13.377 14.0078 13.3141C14.0388 13.1204 14.2405 13 14.5121 13C14.7681 13.0052 14.9543 13.1204 14.9931 13.3089C15.0086 13.3717 14.9931 13.4398 14.9931 13.5026Z" fill="#02E602"/>
<path d="M11.9997 18.3954C11.9644 18.4996 11.9361 18.6507 11.8653 18.7914C11.7946 18.9476 11.554 19.031 11.3489 18.9893C11.1154 18.9424 10.981 18.8226 11.0022 18.6455C11.0163 18.5048 11.0659 18.3642 11.1295 18.2287C11.2003 18.062 11.4125 17.9786 11.6248 18.0047C11.8653 18.036 12.0068 18.1714 11.9997 18.3954Z" fill="#02E602"/>
<path d="M14.9931 15.5001C15.0009 15.8474 14.8534 15.9947 14.5043 16C14.1552 16 14 15.8474 14 15.5053C14 15.4422 14 15.3738 14.0078 15.3106C14.0388 15.1159 14.2405 14.9949 14.5121 15.0002C14.7681 15.0054 14.9543 15.1212 14.9931 15.3054C15.0086 15.3685 14.9931 15.4317 14.9931 15.5001Z" fill="#02E602"/>
<path d="M16 18.3818C16.0071 18.1528 16.1417 18.0435 16.3755 18.0071C16.6022 17.9759 16.7864 18.0487 16.8644 18.2049C16.9352 18.3506 16.9848 18.5015 16.999 18.6577C17.0132 18.8346 16.8785 18.9543 16.6447 18.9907C16.418 19.0272 16.2338 18.9543 16.1488 18.8034C16.0638 18.6577 16.0354 18.4963 16 18.3818Z" fill="#02E602"/>
<path d="M11.0009 15.6034C11.0362 15.4937 11.0644 15.3526 11.1208 15.222C11.1983 15.0495 11.4309 14.9659 11.6706 15.013C11.882 15.0548 12.03 15.2167 11.9948 15.3892C11.9666 15.5146 11.9314 15.6452 11.875 15.7654C11.8045 15.9378 11.593 16.0214 11.3604 15.9953C11.1349 15.9587 10.9868 15.8124 11.0009 15.6034Z" fill="#02E602"/>
<path d="M17 15.6157C16.9929 15.8301 16.8797 15.9451 16.6604 15.9869C16.4269 16.0288 16.2288 15.9712 16.1439 15.7987C16.0732 15.6523 16.0166 15.5007 16.0024 15.349C15.9812 15.1817 16.1015 15.0562 16.3279 15.0144C16.5543 14.9725 16.7594 15.0196 16.8514 15.1869C16.9293 15.3333 16.9646 15.4954 17 15.6157Z" fill="#02E602"/>
<path d="M15.0003 13.3628C14.9932 13.1804 15.1345 13.0449 15.3536 13.0085C15.5657 12.972 15.7918 13.0554 15.8625 13.2169C15.9261 13.3576 15.9685 13.5034 15.9968 13.6545C16.0251 13.8213 15.8625 13.9619 15.6434 13.9932C15.4243 14.0245 15.2052 13.9463 15.1275 13.79C15.078 13.691 15.0568 13.5868 15.0215 13.4878C15.0144 13.4461 15.0073 13.3992 15.0003 13.3628Z" fill="#02E602"/>
<path d="M12.9997 13.4036C12.9642 13.5084 12.9357 13.6552 12.8645 13.7967C12.7933 13.954 12.5656 14.0274 12.345 13.9907C12.1315 13.954 11.9749 13.8125 12.0033 13.6447C12.0247 13.5032 12.0674 13.3616 12.1315 13.2253C12.2097 13.0524 12.3948 12.979 12.6297 13.0052C12.8645 13.0261 13.0069 13.1729 12.9997 13.4036Z" fill="#02E602"/>
<path d="M14.5039 5.0002C14.7873 5.0002 15.0077 5.22845 14.9998 5.51181C14.9919 5.77942 14.7715 5.9998 14.5118 5.9998C14.2363 6.00767 14.0002 5.77942 14.0002 5.49606C13.9923 5.22058 14.2206 4.99233 14.5039 5.0002Z" fill="#02E602"/>
</svg>
