<svg width="24" height="24" viewBox="0 0 24 24" fill="none" xmlns="http://www.w3.org/2000/svg">
<path d="M-1.90735e-06 4.75566C-1.90735e-06 7.09674 1.58164 9.05686 3.80378 9.53874C5.07498 9.81551 6.27101 9.61363 7.38861 8.94289C7.42129 8.92336 7.44744 8.89731 7.48012 8.94941C7.92128 9.60386 8.31995 10.2811 8.59445 11.0235C8.69902 11.3068 8.78072 11.5965 8.8036 11.8994C8.82647 12.1891 8.75785 12.4659 8.67288 12.7394C8.45394 13.446 8.09774 14.0874 7.7056 14.706C7.63697 14.8167 7.56181 14.9242 7.49319 15.0316C7.46704 15.0772 7.44417 15.0837 7.39515 15.0544C6.84615 14.7158 6.24813 14.4944 5.6109 14.4C4.28415 14.2079 3.06524 14.4911 1.98359 15.2791C0.908463 16.0638 0.264694 17.1285 0.0588188 18.4407C-0.320251 20.8697 1.21237 23.2759 3.72208 23.8619C6.33637 24.4741 8.89836 22.9242 9.55847 20.3324C9.89506 19.0072 9.67284 17.7569 8.95718 16.5945C8.91797 16.5327 8.92124 16.5034 8.98333 16.4643C9.61402 16.0508 10.2643 15.6698 10.9767 15.4028C11.2806 15.2889 11.5943 15.1944 11.9211 15.1782C12.2446 15.1586 12.5486 15.2433 12.8525 15.3442C13.6466 15.6079 14.3622 16.028 15.055 16.4871C15.104 16.5196 15.0811 16.5392 15.0615 16.5717C14.7021 17.135 14.4668 17.7439 14.3655 18.4049C14.1727 19.6421 14.4145 20.7948 15.1138 21.8367C15.9079 23.0154 17.019 23.7317 18.4274 23.9433C20.9829 24.3308 23.3096 22.6898 23.8717 20.2868C24.4795 17.6755 22.8717 15.0837 20.2444 14.4749C18.9666 14.1786 17.7542 14.3772 16.6236 15.0479C16.5615 15.087 16.5321 15.0837 16.4896 15.0186C16.0648 14.3772 15.6726 13.7195 15.4047 12.9966C15.2968 12.7068 15.2119 12.4138 15.189 12.1045C15.1661 11.8147 15.2347 11.5379 15.3197 11.2644C15.5386 10.5579 15.8948 9.91644 16.287 9.2978C16.3523 9.19361 16.4242 9.09593 16.4863 8.99173C16.5157 8.94615 16.5353 8.93313 16.5876 8.96569C17.1628 9.32385 17.7902 9.55177 18.4634 9.63643C19.8457 9.80899 21.1005 9.48014 22.1887 8.61078C23.1593 7.8326 23.7508 6.81672 23.937 5.5892C24.3292 3.03975 22.6626 0.62053 20.094 0.119105C17.5386 -0.379065 15.0517 1.19033 14.4341 3.71049C14.1106 5.02591 14.3295 6.26645 15.0354 7.41908C15.0746 7.48095 15.0648 7.50374 15.006 7.54281C14.3753 7.95632 13.7283 8.33402 13.0191 8.59776C12.7152 8.71172 12.408 8.80289 12.0845 8.82242C11.7479 8.84196 11.4277 8.75405 11.114 8.6466C10.395 8.4024 9.7382 8.02796 9.10424 7.6177C9.03888 7.57537 8.94085 7.53955 8.92124 7.48095C8.90163 7.42234 8.9866 7.35071 9.02581 7.28558C9.5552 6.37716 9.77742 5.3971 9.67611 4.35192C9.48004 2.37226 8.08467 0.724723 6.16644 0.184225C3.48353 -0.567914 0.741802 1.05358 0.114374 3.76258C0.0392132 4.12074 -1.90735e-06 4.4789 -1.90735e-06 4.75566ZM2.77767 21.2864C2.78094 21.2832 2.78421 21.2767 2.78748 21.2734C2.77767 21.2604 2.76787 21.2474 2.75807 21.2343C2.29076 20.7329 2.02934 20.1403 1.97378 19.4598C1.92803 18.8998 2.04894 18.369 2.32344 17.8774C2.60448 17.3727 3.00642 16.9852 3.52275 16.7248C3.56849 16.702 3.59137 16.702 3.60444 16.7606C3.71228 17.2294 3.86587 17.6788 4.05214 18.1216C4.10115 18.2388 4.10116 18.2388 3.99985 18.3137C3.61751 18.597 3.46392 18.9714 3.57176 19.437C3.64692 19.7626 3.86587 19.9971 4.12403 20.1957C4.37239 20.3878 4.65669 20.4496 4.96387 20.4073C5.03249 20.3975 5.03576 20.4203 5.03903 20.4724C5.0619 20.7524 5.07497 21.039 5.13053 21.3157C5.24164 21.8497 5.45731 22.3479 5.67626 22.8428C5.7024 22.9047 5.74162 22.9633 5.7939 23.0121C5.82985 23.0447 5.8756 23.061 5.91481 23.0349C6.02592 22.9665 6.1403 22.9014 6.19258 22.7712C6.20565 22.7386 6.22526 22.7191 6.25794 22.7061C6.6991 22.5205 7.09124 22.2665 7.43436 21.9344C8.11735 21.2669 8.49969 20.4529 8.56831 19.5054C8.62713 18.7012 8.43106 17.9523 7.99644 17.2685C7.97029 17.2262 7.97356 17.2034 8.01278 17.1741C8.16963 17.0601 8.32322 16.9429 8.47681 16.8224C8.52256 16.7866 8.5389 16.7964 8.56831 16.842C9.21208 17.8969 9.41795 19.0268 9.11731 20.225C8.51929 22.6149 6.1403 24.0247 3.74169 23.4289C1.39864 22.8461 -0.0490189 20.391 0.584946 18.0695C1.07839 16.2624 2.5718 15.0056 4.45735 14.8233C5.41156 14.7321 6.30042 14.9437 7.12719 15.4289C7.17947 15.4614 7.17947 15.481 7.1468 15.5265C6.77753 16.0215 6.37558 16.4903 5.95729 16.9462C5.59456 17.3401 5.16321 17.6364 4.6959 17.8904C4.68283 17.8969 4.67303 17.9067 4.65669 17.8969C4.63381 17.6462 4.62074 17.3955 4.57826 17.1448C4.48022 16.5717 4.24494 16.0475 4.01292 15.52C3.98678 15.4582 3.95083 15.4028 3.90182 15.3572C3.86587 15.3247 3.82339 15.3019 3.7809 15.3279C3.63385 15.4093 3.49987 15.507 3.46392 15.6893C3.42471 15.9042 3.47373 16.1126 3.50967 16.3243C3.51621 16.3731 3.50967 16.3926 3.46719 16.4122C3.28092 16.5066 3.10773 16.6238 2.94433 16.7541C2.00973 17.5029 1.60451 18.7663 1.9313 19.9157C2.08816 20.4464 2.36592 20.9055 2.77767 21.2864ZM2.2058 3.53792C2.23194 3.49559 2.25809 3.45326 2.28423 3.41093C2.61428 2.86392 3.07178 2.46343 3.66326 2.21598C4.24167 1.97178 4.83969 1.92619 5.45078 2.07271C5.94749 2.19318 6.37885 2.43087 6.74812 2.78578C6.77753 2.81508 6.80367 2.83462 6.74812 2.86718C6.30696 3.14068 5.90174 3.45652 5.5194 3.80817C5.48672 3.83747 5.46712 3.84072 5.43117 3.81142C5.1534 3.58676 4.83315 3.53792 4.5031 3.6356C4.0554 3.77235 3.75149 4.08167 3.59464 4.51798C3.4966 4.79474 3.51948 5.07801 3.67307 5.33523C3.72208 5.41989 3.69594 5.43943 3.62405 5.46222C2.87244 5.72921 2.27442 6.22413 1.70255 6.7516C1.63719 6.81021 1.57511 6.87533 1.53262 6.95673C1.50648 7.00557 1.49014 7.06092 1.53916 7.09999C1.64046 7.1879 1.74503 7.27256 1.88882 7.27582C1.91823 7.27582 1.9411 7.28559 1.96071 7.30838C2.12737 7.49723 2.31364 7.66979 2.51951 7.81957C3.17962 8.30797 3.92142 8.55543 4.73839 8.56845C5.45078 8.57822 6.11089 8.39588 6.72197 8.03121C6.76772 8.00516 6.78733 8.01168 6.81347 8.05075C6.92131 8.19401 7.02915 8.34053 7.14353 8.48054C7.18601 8.53264 7.17947 8.55543 7.12065 8.58799C6.13049 9.16756 5.07171 9.35315 3.95083 9.11872C1.48687 8.60101 -0.026144 6.18831 0.584946 3.75933C1.16335 1.45407 3.51294 -0.0078795 5.89521 0.581459C8.27747 1.1708 9.68265 3.47931 9.13365 5.8562C9.02581 6.32832 8.83301 6.77114 8.57485 7.17814C8.55851 7.20419 8.55197 7.24326 8.50295 7.20418C8.33956 7.0772 8.1729 6.95022 8.00624 6.82649C7.97029 6.80044 7.97683 6.77765 7.99644 6.74509C8.14676 6.50089 8.25786 6.23715 8.34283 5.9669C8.39185 5.81387 8.42779 5.65432 8.4474 5.49478C8.44413 5.53385 8.42779 5.56641 8.41799 5.60548C8.31668 5.98969 8.1729 6.35762 7.95722 6.69299C7.92454 6.74183 7.9082 6.7516 7.85919 6.70927C7.64024 6.52693 7.42456 6.3446 7.21542 6.15249C6.91804 5.87899 6.62394 5.59897 6.40172 5.25383C6.21219 4.96079 6.0488 4.65147 5.8658 4.35518C5.83639 4.30959 5.86253 4.29982 5.89521 4.28354C6.11415 4.18586 6.33636 4.08818 6.55531 3.98399C7.15006 3.70072 7.62063 3.25464 8.09447 2.81508C8.13369 2.77601 8.16636 2.73043 8.18597 2.67833C8.20231 2.63926 8.20558 2.60018 8.1729 2.57088C8.03565 2.45041 7.89186 2.35273 7.69253 2.39506C7.48992 2.43738 7.31672 2.54158 7.13699 2.636C7.09451 2.65879 7.06837 2.66531 7.03242 2.62623C6.8821 2.4732 6.7089 2.34622 6.52263 2.23877C5.74815 1.78618 4.92139 1.66571 4.05867 1.92293C3.2025 2.1769 2.57833 2.7174 2.19273 3.52489C2.196 3.52815 2.20253 3.5314 2.2058 3.53792ZM16.1399 21.2181C15.6269 20.4236 15.4406 19.5575 15.5975 18.623C15.6726 18.1704 15.8393 17.7504 16.0778 17.3597C16.1138 17.3043 16.1334 17.2848 16.1922 17.3401C16.2706 17.415 16.3556 17.4802 16.4406 17.5485C17.0876 18.0728 17.6333 18.6849 18.0059 19.437C18.0941 19.6161 18.2019 19.7854 18.3229 19.945C18.4372 20.0947 18.5647 20.2315 18.7379 20.3096C18.813 20.3422 18.8261 20.3747 18.7934 20.4496C18.483 21.1725 18.4242 21.9376 18.4209 22.7126C18.4209 22.8168 18.4242 22.9242 18.4536 23.0251C18.4699 23.0838 18.496 23.1391 18.5712 23.1326C18.7771 23.1163 18.9568 23.0479 19.0516 22.8428C19.1039 22.7321 19.1398 22.6181 19.1725 22.4977C19.1921 22.426 19.1921 22.3349 19.2346 22.286C19.2836 22.2307 19.3816 22.26 19.4568 22.2502C20.1136 22.159 20.7018 21.9083 21.1757 21.4427C22.0809 20.5603 22.3456 19.5021 21.9861 18.2942C21.9469 18.1639 21.8946 18.0337 21.8195 17.9099C21.8162 17.923 21.8129 17.9262 21.8162 17.9262C21.8293 17.9555 21.8423 17.9881 21.8554 18.0174C22.1234 18.6946 22.143 19.3817 21.8946 20.0622C21.607 20.8534 21.0678 21.4134 20.2868 21.7423C19.9927 21.866 19.6823 21.9311 19.3653 21.9507C19.3294 21.9539 19.2999 21.9539 19.313 21.9018C19.4078 21.4199 19.447 20.9315 19.4535 20.4399C19.4535 20.4041 19.4633 20.3845 19.4993 20.3748C19.8522 20.2706 20.1038 20.0361 20.2934 19.7366C20.5809 19.2872 20.4927 18.7337 20.0908 18.3821C19.9241 18.2355 19.7313 18.1216 19.5352 18.0141C19.4797 17.9848 19.4764 17.9588 19.496 17.9034C19.5842 17.6495 19.6823 17.3955 19.7444 17.1285C19.8653 16.5913 19.8653 16.0443 19.8653 15.5005C19.8653 15.4289 19.8587 15.3572 19.8293 15.2889C19.8097 15.2433 19.7803 15.2042 19.7248 15.2107C19.5973 15.227 19.4699 15.2433 19.3686 15.3344C19.3326 15.367 19.2967 15.3768 19.2509 15.3768C18.9732 15.3703 18.7019 15.3996 18.4307 15.4549C18.0091 15.5428 17.6137 15.6991 17.2477 15.927C17.2052 15.9531 17.1856 15.9531 17.1562 15.9108C17.0615 15.7805 16.9634 15.6503 16.8621 15.5265C16.8131 15.4679 16.8229 15.4451 16.8883 15.4061C17.9438 14.7939 19.0647 14.6344 20.2476 14.9274C22.5417 15.4907 23.9926 17.8644 23.4436 20.1533C22.8978 22.4098 20.7901 23.8424 18.4928 23.5038C17.3817 23.341 16.4634 22.82 15.7511 21.9539C14.957 20.9901 14.6334 19.8766 14.7772 18.636C14.8524 17.9816 15.0746 17.3792 15.4243 16.8224C15.4504 16.7801 15.4667 16.7769 15.5027 16.8062C15.6465 16.9201 15.7935 17.0308 15.9406 17.1383C15.9798 17.1676 15.9733 17.1871 15.9537 17.2262C15.4929 18.0174 15.3426 18.864 15.4994 19.7626C15.5877 20.2738 15.7837 20.7427 16.0811 21.1692C16.0974 21.1888 16.0974 21.2311 16.1399 21.2181ZM16.2608 2.64251C16.4536 2.40482 16.6693 2.18993 16.9177 2.00759C17.7477 1.40523 18.6725 1.16428 19.6823 1.34662C20.9045 1.56803 21.7868 2.2583 22.3194 3.38163C22.3685 3.48582 22.4011 3.59652 22.4436 3.70397C22.3064 3.71374 22.1789 3.72351 22.0515 3.73653C21.4469 3.80165 20.8587 3.93841 20.2836 4.13377C20.228 4.1533 20.1986 4.13702 20.1659 4.09795C20.0548 3.96445 19.9274 3.84724 19.7803 3.75607C19.3686 3.49884 18.849 3.54117 18.5059 3.85701C18.3915 3.9612 18.3032 4.08493 18.2183 4.21191C18.0778 4.42681 17.9569 4.65473 17.8294 4.87939C17.8 4.93149 17.7673 4.95102 17.7052 4.95102C17.398 4.95428 17.0909 4.94777 16.7902 5.00963C16.336 5.1008 15.8948 5.24081 15.4569 5.3971C15.3851 5.42315 15.3132 5.45571 15.2511 5.50455C15.2086 5.54036 15.1759 5.58269 15.2021 5.6413C15.2968 5.85294 15.4439 5.98969 15.689 5.9962C15.8524 6.00272 16.0157 5.98969 16.1791 5.97341C16.2249 5.97016 16.2478 5.97992 16.2641 6.02551C16.3099 6.14598 16.3719 6.25669 16.4373 6.36413C16.4667 6.41297 16.4569 6.43577 16.4177 6.47158C16.1269 6.71578 15.8262 6.95022 15.5223 7.18139C15.4569 7.23023 15.4308 7.23023 15.3883 7.1586C14.8034 6.17854 14.604 5.13336 14.8197 4.01329C15.2837 1.63315 17.6268 0.0800324 20.0156 0.558666C22.3227 1.01776 23.8521 3.19604 23.4991 5.51106C23.3325 6.60833 22.8129 7.52002 21.9567 8.22332C21.0058 9.00801 19.9012 9.3271 18.6725 9.20989C18.0189 9.14802 17.4111 8.93638 16.8491 8.59776C16.8098 8.57496 16.7935 8.55869 16.8294 8.5131C17.0745 8.18424 17.3327 7.8619 17.6007 7.55258C17.6333 7.51351 17.6562 7.51025 17.702 7.53304C18.3098 7.83585 18.9503 7.93028 19.6202 7.8098C20.1594 7.71212 20.6365 7.48095 21.0515 7.12278C21.0744 7.10325 21.1103 7.08697 21.1201 7.02836C20.9665 7.15534 20.8195 7.25954 20.6626 7.34745C20.0679 7.67956 19.4307 7.79352 18.7575 7.68933C18.4372 7.64049 18.1333 7.53304 17.849 7.37675C17.8229 7.36047 17.7739 7.35396 17.8229 7.30512C18.0451 7.07394 18.2575 6.82974 18.5124 6.62787C18.849 6.36739 19.2248 6.16877 19.594 5.95713C19.7672 5.85945 19.9372 5.752 20.0908 5.62176C20.3326 5.41338 20.4633 5.15615 20.4568 4.83706C20.4568 4.76869 20.4764 4.75566 20.5385 4.75566C20.8097 4.74915 21.0842 4.75892 21.3554 4.71985C21.8685 4.64496 22.3554 4.47565 22.8456 4.30959C22.9175 4.28354 22.9893 4.25098 23.0482 4.19889C23.0841 4.16633 23.1168 4.12725 23.0939 4.07516C23.0351 3.95469 22.973 3.83421 22.8456 3.77235C22.8129 3.75607 22.7965 3.73328 22.7835 3.70072C22.5286 2.95183 22.0842 2.33645 21.4437 1.87409C20.6365 1.28801 19.728 1.05032 18.7346 1.17731C17.9144 1.2815 17.2052 1.62989 16.6138 2.20621C16.4798 2.33645 16.3458 2.4732 16.2478 2.636C16.251 2.636 16.2576 2.63926 16.2608 2.64251ZM7.9082 17.2587C8.15656 17.682 8.31669 18.1281 8.38858 18.6067C8.46701 19.144 8.42779 19.6714 8.25786 20.1826C7.92128 21.1822 7.27097 21.9051 6.30042 22.3381C6.2514 22.3609 6.23506 22.3577 6.22853 22.2991C6.18931 21.9734 6.12069 21.6544 6.03572 21.3385C5.92135 20.9218 5.77756 20.5148 5.60437 20.1208C5.5913 20.0915 5.56842 20.0687 5.6011 20.0329C5.7939 19.8115 5.94096 19.5575 6.07167 19.3003C6.49322 18.4537 7.17947 17.8448 7.9082 17.2587ZM12.0028 14.4749C10.6075 14.4683 9.57154 13.3678 9.51599 12.1142C9.4539 10.7109 10.5748 9.53223 11.993 9.53223C13.3851 9.53223 14.421 10.6328 14.4799 11.8831C14.5452 13.2929 13.4211 14.4683 12.0028 14.4749ZM2.27769 7.18465C2.28423 7.17814 2.28423 7.17488 2.2875 7.17488C2.97701 6.82974 3.60117 6.39018 4.16651 5.86922C4.19919 5.83992 4.22206 5.84643 4.25147 5.86596C4.38219 5.94411 4.51617 6.019 4.64689 6.09388C4.96714 6.27622 5.29392 6.4553 5.57169 6.6995C5.97037 7.05115 6.31676 7.4549 6.65662 7.8619C6.70237 7.91725 6.64681 7.92051 6.62067 7.93353C5.85599 8.34053 5.04883 8.46426 4.19919 8.29169C3.44432 8.1354 2.80382 7.76422 2.27769 7.18465ZM18.8522 17.6137C18.7117 17.529 18.5875 17.4443 18.4699 17.3467C18.0614 16.9983 17.7183 16.5913 17.3719 16.1875C17.336 16.1452 17.3752 16.1387 17.398 16.1257C17.6889 15.9661 17.9961 15.8522 18.3196 15.7805C18.5941 15.7187 18.8719 15.6926 19.1594 15.6991C18.9764 16.3243 18.8817 16.9559 18.8522 17.6137ZM5.94423 18.7272C5.93769 18.6588 5.98017 18.6132 6.00631 18.5644C6.37885 17.9034 6.88863 17.3597 7.45724 16.868C7.56181 16.7801 7.56181 16.7834 7.65004 16.8908C7.68926 16.9397 7.68926 16.9625 7.63697 17.0048C7.01281 17.5127 6.43114 18.0695 5.94423 18.7272ZM5.25797 5.99295C5.26124 5.98644 5.26451 5.97993 5.26778 5.97341C5.3168 5.99946 5.36908 6.02551 5.4181 6.05156C6.06187 6.41623 6.5978 6.90789 7.08144 7.45815C7.17294 7.56235 7.16967 7.56235 7.06183 7.65026C7.01608 7.68933 6.9932 7.69584 6.94745 7.64375C6.58146 7.19767 6.18604 6.77765 5.75142 6.39669C5.59456 6.25343 5.4279 6.12319 5.25797 5.99295ZM18.7509 18.0207C18.7183 18.0369 18.6954 18.0174 18.6725 18.0044C18.581 17.9523 18.4862 17.9034 18.398 17.8481C17.8457 17.5029 17.3752 17.0699 16.9438 16.5848C16.8425 16.4708 16.8262 16.5066 16.9667 16.3959C17.0124 16.3601 17.0353 16.3601 17.0778 16.4089C17.5778 17.0048 18.1202 17.5583 18.7509 18.0207ZM15.6596 7.53955C15.6792 7.52327 15.6955 7.51025 15.7151 7.49723C16.0157 7.27582 16.3164 7.05115 16.6007 6.8037C16.6922 6.7223 16.6889 6.72881 16.7706 6.81021C16.8294 6.86882 16.8098 6.89812 16.7608 6.9437C16.4798 7.20093 16.1824 7.43536 15.8687 7.65351C15.8458 7.66979 15.8197 7.71863 15.787 7.68607C15.738 7.64375 15.702 7.59165 15.6596 7.53955ZM7.9082 8.58473C8.13369 8.85824 8.75131 10.1379 8.80686 10.4602C8.78072 10.4179 8.76438 10.3951 8.75131 10.3723C8.46701 9.85783 8.16963 9.35315 7.84938 8.86149C7.74481 8.69869 7.74481 8.69869 7.9082 8.58473ZM15.2021 13.5664C15.2086 13.5762 15.2151 13.5795 15.2151 13.5827C15.5354 14.1525 15.8589 14.7191 16.2249 15.2628C16.2445 15.2921 16.238 15.3051 16.2151 15.3214C16.1922 15.3377 16.1661 15.3507 16.1497 15.3735C16.1007 15.4289 16.0713 15.4126 16.0354 15.354C15.7053 14.807 15.421 14.2404 15.2086 13.6381C15.2021 13.6185 15.189 13.599 15.2021 13.5664ZM10.4375 15.1879C10.4212 15.1977 10.4081 15.2075 10.395 15.214C9.85584 15.507 9.32645 15.8163 8.8134 16.1484C8.69903 16.2233 8.70229 16.2233 8.61406 16.1224C8.57485 16.0768 8.57158 16.0605 8.62713 16.028C9.18267 15.6926 9.76108 15.4093 10.3722 15.1944C10.3918 15.1847 10.4114 15.1749 10.4375 15.1879ZM15.4112 7.94981C15.0289 8.22006 13.7675 8.81591 13.5649 8.81265C13.6269 8.77684 13.676 8.74753 13.725 8.72149C14.2054 8.46101 14.6727 8.18099 15.1334 7.88795C15.2968 7.78375 15.2968 7.78375 15.4079 7.94004C15.4112 7.94656 15.4112 7.94981 15.4112 7.94981ZM17.8817 5.62502C17.8654 5.65432 17.8555 5.66735 17.849 5.68037C17.6268 6.02225 17.3654 6.33483 17.0843 6.63113C17.0288 6.68973 17.0059 6.68322 16.9569 6.62462C16.9046 6.55949 16.9046 6.52693 16.97 6.46833C17.2347 6.23389 17.4797 5.97341 17.7118 5.70642C17.7542 5.65432 17.8033 5.63479 17.8817 5.62502ZM8.17617 16.3178C8.19904 16.3145 8.20558 16.3308 8.21538 16.3438C8.24153 16.3731 8.2644 16.4057 8.29054 16.4317C8.32322 16.4675 8.31995 16.4871 8.28074 16.5131C8.14676 16.6108 8.01278 16.7085 7.88206 16.8094C7.75135 16.9104 7.75135 16.9104 7.64678 16.7834C7.61736 16.7476 7.6239 16.7345 7.65658 16.7085C7.81344 16.5782 7.98336 16.461 8.14676 16.3406C8.15329 16.334 8.16636 16.3243 8.17617 16.3178ZM7.07817 7.79027C7.12065 7.75445 7.16313 7.72189 7.19908 7.68282C7.23176 7.65026 7.25463 7.65026 7.28404 7.68933C7.38208 7.81957 7.48338 7.94981 7.57815 8.08005C7.66965 8.20378 7.66965 8.20378 7.54547 8.2982C7.50626 8.32751 7.48665 8.33076 7.45397 8.28844C7.34286 8.1354 7.22522 7.98237 7.11085 7.83259C7.10104 7.81957 7.09124 7.80655 7.07817 7.79027ZM16.885 16.1712C16.8491 16.2005 16.8066 16.2266 16.7739 16.2592C16.7249 16.3145 16.6955 16.2917 16.6628 16.2461C16.5844 16.1387 16.5027 16.0345 16.4242 15.927C16.3197 15.787 16.3229 15.7903 16.4634 15.6893C16.4994 15.6666 16.5125 15.6731 16.5353 15.7024C16.6497 15.8619 16.7674 16.0182 16.885 16.1712ZM16.568 5.93108C16.7477 5.89852 16.9275 5.86271 17.1072 5.83015C16.9928 5.95713 16.8719 6.07109 16.751 6.18505C16.7379 6.19808 16.7216 6.20785 16.7053 6.22413C16.6497 6.12644 16.6007 6.03528 16.568 5.93108Z" fill="#02E602"/>
<path d="M15.9902 3C15.9705 3.01965 15.9509 3.04258 15.9312 3.06223H15.9279C15.9836 3.08844 15.9738 3.02293 16 3.00983C16 3.00655 15.9934 3.00328 15.9902 3Z" fill="#02E602"/>
<path d="M16 3.01671C15.9967 3.00042 15.987 2.9939 15.9739 3.00693C15.9707 3.01019 15.9674 3.01997 15.9707 3.01997C15.9804 3.03626 15.987 3.00693 16 3.01671Z" fill="#02E602"/>
<path d="M15.992 3.04586C15.9821 3.03276 16.0214 3.00983 15.9821 3C15.9854 3 15.9821 3 15.9821 3C15.9887 3.01638 15.9559 3.03931 15.992 3.04586C15.992 3.04586 15.9952 3.04586 15.992 3.04586Z" fill="#02E602"/>
<path d="M20.9902 7C20.9837 7.00653 20.9707 7.01305 20.9804 7.02284C20.9935 7.03589 20.9967 7.01958 21 7.00979C20.9967 7.00979 20.9935 7.00653 20.9902 7Z" fill="#02E602"/>
<path d="M20.9902 7C20.9837 7.00652 20.9804 7.00978 20.9739 7.0163C20.9772 7.01956 20.9804 7.02282 20.9837 7.02934C20.9935 7.02934 21 7.02282 21 7.01304C20.9967 7.00652 20.9935 7.00326 20.9902 7Z" fill="#02E602"/>
<path d="M21 7.00702C20.987 6.99073 20.9804 7.00702 20.9739 7.01353C20.9772 7.01679 20.9804 7.02005 20.9837 7.0233C20.9935 7.0233 20.9967 7.01679 21 7.00702C20.9967 7.00376 21 7.00702 21 7.00702Z" fill="#02E602"/>
<path d="M20.9804 7.01743C20.9935 7.01743 20.9967 7.01417 20.9967 7.00114H21C20.9837 6.99788 20.9772 7.00114 20.9804 7.01743Z" fill="#02E602"/>
<path d="M21 7.00145C20.9935 7.00145 20.987 7.00471 20.9804 7.00471C20.9837 7.00797 20.9837 7.01449 20.987 7.01775H20.9837C20.9935 7.01775 21 7.01123 21 7.00145C20.9967 6.99819 21 7.00145 21 7.00145Z" fill="#02E602"/>
<path d="M20.987 7.01631C20.9902 7.01304 20.9935 7.00652 21 7.00326C20.9967 7.00326 20.9935 7 20.9935 7C20.9804 7.00652 20.9804 7.01304 20.987 7.01631C20.987 7.01957 20.987 7.01631 20.987 7.01631Z" fill="#02E602"/>
<path d="M20.9981 7L20.994 7.00417C20.9981 7.00417 20.9981 7 20.9981 7C20.9981 7 21.0023 7 20.9981 7Z" fill="#02E602"/>
<path d="M21 7.00167C20.9962 6.99791 20.9962 7.00167 21 7.00167C21 7.00167 20.9962 7.00167 21 7.00167Z" fill="#02E602"/>
<path d="M15.989 21C15.9653 21.0068 15.9822 21.0203 15.9856 21.0305C15.9856 21.0338 15.9991 21.0338 15.9991 21.0338C16.0025 21.0203 15.9957 21.0102 15.989 21C15.9856 21.0034 15.989 21 15.989 21Z" fill="#02E602"/>
<path d="M1.98693 4C1.96078 4.05861 1.93791 4.12047 1.91177 4.17908C1.95098 4.12698 1.98039 4.07163 2 4.00977C1.99673 4.00651 1.9902 4.00326 1.98693 4Z" fill="#02E602"/>
<path d="M1.9869 4C1.98035 4.0131 1.97707 4.02293 1.97052 4.03603C1.9738 4.03931 1.98035 4.04259 1.98362 4.04586C1.99672 4.03931 2 4.02621 2 4.0131C1.99672 4.00655 1.99017 4.00328 1.9869 4Z" fill="#02E602"/>
<path d="M1.99674 4C1.99674 4.00326 1.99348 4.00978 1.99348 4.01304C1.99348 4.0163 1.99674 4.0163 1.99674 4.01956C1.99674 4.0163 2 4.00978 2 4.00652C2 4.00326 1.99674 4 1.99674 4Z" fill="#02E602"/>
<path d="M1.98362 4C1.98034 4.00983 1.97379 4.01965 1.97051 4.03276C1.97379 4.03603 1.98034 4.04259 1.98362 4.04586C1.99672 4.03931 2 4.02621 2 4.0131C1.99672 4.00655 1.99017 4.00328 1.98362 4Z" fill="#02E602"/>
<path d="M2.94104 21.0098C2.95742 21.0262 2.97052 21.0491 3 21.0491C2.99017 21.0229 2.9738 21.0098 2.95087 21C2.95087 21.0033 2.94432 21.0066 2.94104 21.0098Z" fill="#02E602"/>
<path d="M2.97392 21.013C2.98044 21.0196 2.9837 21.0228 2.99022 21.0293C2.99348 21.0261 2.99674 21.0196 3 21.0163C2.99348 21.0098 2.99022 21.0065 2.9837 21C2.9837 21.0033 2.98044 21.0065 2.97392 21.013Z" fill="#02E602"/>
<path d="M2.97392 21.013C2.98044 21.0163 2.9837 21.0228 2.99022 21.0261C2.99348 21.0228 2.99674 21.0196 3 21.0163C3 21.0065 2.99348 21 2.9837 21C2.97718 21.0065 2.97392 21.0098 2.97392 21.013Z" fill="#02E602"/>
<path d="M11.9951 14C13.1484 13.9933 13.9933 13.0579 14 12.0152C14.0067 10.9657 13.1685 10.0136 12.0085 10.0001C10.9189 9.98674 10.0137 10.8819 10.0002 11.9816C9.98348 13.0378 10.8284 13.9899 11.9951 14ZM11.9984 13.4401C11.1971 13.4401 10.5501 12.7964 10.5534 11.9984C10.5534 11.2105 11.2005 10.5701 11.9884 10.5601C12.7394 10.55 13.4401 11.1535 13.4468 11.9984C13.4468 12.7964 12.7964 13.4401 11.9984 13.4401Z" fill="#02E602"/>
<path d="M11 11.9986C11 12.5512 11.4473 12.9972 11.9986 13C12.5527 13 13 12.554 13 12.0014C13 11.4488 12.5556 11.0028 12.0014 11C11.4501 10.9972 11 11.446 11 11.9986ZM11.9367 11.3843C11.9367 11.3591 11.9367 11.331 11.9367 11.3058C11.9451 11.1627 11.9761 11.1375 12.1195 11.1543C12.1421 11.1571 12.1617 11.1627 12.1814 11.1655C12.5527 11.2384 12.8481 11.5863 12.8565 11.9593C12.8565 12.007 12.8481 12.0295 12.7975 12.0435C12.3643 12.1641 11.9311 11.8359 11.9367 11.3843ZM11.2138 12.3324C11.346 12.2903 11.4585 12.3184 11.557 12.3997C11.6639 12.4895 11.692 12.6073 11.6751 12.7419C11.6695 12.7784 11.6554 12.7784 11.6273 12.7644C11.4388 12.6718 11.3038 12.5288 11.2138 12.3324ZM11.9339 11.979C11.9339 11.9565 11.9592 11.9313 11.9986 11.9313C12.0352 11.9313 12.0633 11.9509 12.0661 11.9958C12.0661 12.0407 12.0408 12.0631 12.0042 12.0659C11.9648 12.0659 11.9367 12.0435 11.9339 11.979Z" fill="#02E602"/>
</svg>
