<svg width="40" height="40" viewBox="0 0 40 40" fill="none" xmlns="http://www.w3.org/2000/svg">
<circle cx="20" cy="20" r="19" stroke="#02E602" stroke-width="2"/>
<path d="M33 24.1543C32.8597 24.5317 32.7987 24.94 32.6584 25.3236C32.0789 26.895 31.4323 28.4417 30.5477 29.8646C29.9682 30.7988 29.3094 31.665 28.4005 32.3022C27.4428 32.9704 26.3996 33.2364 25.3016 32.7415C24.9783 32.593 24.7831 32.5868 24.4537 32.7415C23.441 33.2117 22.4589 33.0013 21.5317 32.426C21.2328 32.2404 20.9583 32.0238 20.7082 31.7702C20.6045 31.6588 20.5191 31.6588 20.3971 31.7454C19.5186 32.3332 18.5548 32.7105 17.5178 32.8838C15.7731 33.1684 14.12 32.89 12.5766 32.0114C11.1309 31.1886 10.0512 30.0069 9.36796 28.4726C8.61154 26.7713 8.48344 25.0142 8.97145 23.2139C9.25206 22.1745 9.74007 21.2465 10.4111 20.4113C11.1004 19.5513 11.5518 18.58 11.747 17.4912C11.8263 17.0395 11.808 16.5879 11.8507 16.1363C11.93 15.2949 12.2472 14.5463 12.7536 13.8595C12.479 13.7915 12.2106 13.8162 11.9483 13.7791C10.7954 13.6059 9.72177 13.1914 8.68474 12.6779C7.94052 12.3067 7.76972 11.391 8.33703 10.7847C9.29476 9.76391 10.3318 8.84209 11.6372 8.29766C12.8634 7.79034 14.9618 7.87696 16.0659 8.98438C16.3527 9.27516 16.554 9.60924 16.6943 10.0176C16.8895 9.7701 17.0603 9.54738 17.2372 9.32465C17.5361 8.95345 17.8777 8.62555 18.2376 8.31622C18.6158 7.99451 19.1038 8.01925 19.4149 8.3719C19.7138 8.71217 19.6955 9.21329 19.3417 9.54738C18.9513 9.91858 18.5548 10.2836 18.2315 10.729C17.957 11.1064 17.7191 11.5086 17.5239 11.9355C17.4507 12.0901 17.4629 12.1396 17.6337 12.2015C19.1404 12.7397 20.1226 13.7853 20.5679 15.3505C20.7082 15.8517 20.7021 16.359 20.7326 16.8725C20.7753 17.6149 20.9583 18.314 21.2511 18.9883C21.2877 19.075 21.3243 19.1492 21.4341 19.1492C22.1844 19.1863 22.8737 19.44 23.5569 19.7431C23.8315 19.8669 23.8315 19.8545 23.8376 19.5575C23.8559 18.4872 24.2463 17.5716 24.9417 16.7797C25.2589 16.427 25.7347 16.3961 26.0824 16.6807C26.4118 16.9529 26.485 17.4417 26.2166 17.8129C25.9482 18.1841 25.6737 18.5553 25.57 19.0131C25.509 19.2729 25.4785 19.5328 25.5029 19.7988C25.5151 19.9102 25.5273 19.9535 25.6615 19.9225C25.9909 19.8483 26.2837 19.6936 26.5948 19.5699C27.6807 19.1306 28.797 18.9636 29.9255 19.3101C31.5543 19.8112 32.5059 20.9681 32.8963 22.6262C32.9207 22.7375 32.9085 22.8674 32.9939 22.9664C32.9939 23.0345 32.9939 23.0963 32.9939 23.1644C32.9146 23.4304 32.9146 23.6903 32.9939 23.9563C33 24.0244 33 24.0862 33 24.1543ZM16.2062 31.3185C17.3775 31.3062 18.4145 31.0216 19.3661 30.4338C19.4637 30.372 19.5125 30.341 19.4332 30.2111C18.4084 28.6582 17.6886 26.9507 17.0542 25.1998C16.8773 24.7111 16.7675 24.2038 16.7614 23.6779C16.7309 21.76 17.7191 20.2009 19.4515 19.4276C19.5735 19.3719 19.6162 19.3286 19.5613 19.1987C19.1892 18.2707 19.0794 17.287 19.0489 16.2971C19.0123 14.9979 17.8228 13.5131 16.1025 13.7482C14.6385 13.9523 13.4551 15.1216 13.4734 16.6188C13.4795 17.4293 13.3148 18.2212 13.0647 18.9945C12.7292 20.0153 12.1252 20.8815 11.4969 21.7353C10.4416 23.1768 10.1 24.8101 10.4782 26.5547C11.0882 29.3697 13.4307 31.269 16.2062 31.3185ZM31.3408 23.5727C31.3408 22.3787 30.6697 21.3393 29.6388 20.9619C28.8153 20.6588 28.004 20.7887 27.217 21.1228C26.6741 21.3517 26.1373 21.562 25.5456 21.6301C24.4415 21.7538 23.4044 21.5249 22.3979 21.0733C21.7757 20.7949 21.1108 20.7144 20.4398 20.8691C18.9269 21.2218 18.0424 22.8365 18.5365 24.3956C19.0245 25.9237 19.6589 27.3899 20.4764 28.7696C20.8729 29.4316 21.2999 30.075 21.8733 30.6009C22.2881 30.9844 22.7395 31.2876 23.3373 31.3C23.6667 31.3062 23.9047 31.201 24.0267 30.8731C24.0633 30.7679 24.1243 30.6627 24.1853 30.5699C24.4659 30.1183 25.0637 30.0502 25.448 30.4153C25.5822 30.5452 25.6615 30.706 25.7225 30.8731C25.8384 31.1762 26.058 31.3 26.363 31.3C26.6497 31.2938 26.9242 31.2381 27.1804 31.0958C27.9125 30.6999 28.4188 30.0688 28.8763 29.3883C29.9133 27.8478 30.6026 26.134 31.2127 24.3894C31.3164 24.1233 31.353 23.8388 31.3408 23.5727ZM10.0146 11.4405C10.6246 11.7004 11.2102 11.9045 11.8202 12.0468C12.9549 12.3129 13.9675 12.053 14.8032 11.2302C15.3095 10.7352 15.1997 10.2094 14.5531 9.92477C13.7235 9.55975 12.8756 9.55356 12.052 9.92477C11.2773 10.2774 10.6551 10.8466 10.0146 11.4405Z" fill="#02E602"/>
<path d="M33.0597 24C32.9801 23.6641 32.9801 23.3359 33.0597 23C33.0597 23.3359 33.0597 23.6641 33.0597 24Z" fill="#02E602"/>
</svg>
