<svg width="24" height="22" viewBox="0 0 24 22" fill="none" xmlns="http://www.w3.org/2000/svg">
<path d="M23.5023 10.8234L13.2734 0.900617L12.5877 0.235159C12.4315 0.0845357 12.2203 0 12 0C11.7798 0 11.5686 0.0845357 11.4124 0.235159L0.497791 10.8234C0.337715 10.9781 0.211205 11.1625 0.125727 11.3655C0.0402491 11.5685 -0.0024636 11.786 0.000109727 12.0053C0.0106987 12.9097 0.78634 13.6317 1.71817 13.6317H2.84325V22H21.1569V13.6317H22.3058C22.7584 13.6317 23.1846 13.4595 23.505 13.1486C23.6627 12.9961 23.7876 12.8146 23.8726 12.6148C23.9576 12.415 24.0009 12.2009 24 11.9847C24 11.5479 23.8226 11.1343 23.5023 10.8234ZM13.4825 20.1501H10.5176V14.9086H13.4825V20.1501ZM19.2508 11.7818V20.1501H15.1767V14.292C15.1767 13.7242 14.7029 13.2643 14.1178 13.2643H9.88226C9.29722 13.2643 8.82336 13.7242 8.82336 14.292V20.1501H4.74926V11.7818H2.20791L12.0027 2.28292L12.6142 2.87644L21.7948 11.7818H19.2508Z" fill="#02E602"/>
</svg>
