<svg width="22" height="23" viewBox="0 0 22 23" fill="none" xmlns="http://www.w3.org/2000/svg">
<path d="M2.95262 22.9865C2.80742 22.8832 2.66662 22.7754 2.64902 22.5778C2.63142 22.3353 2.77222 22.1916 2.97022 22.0928C3.37061 21.8906 3.7622 21.6751 4.167 21.4864C4.34299 21.4056 4.40899 21.3113 4.40459 21.1047C4.39139 20.0402 4.40019 18.9803 4.39579 17.9158C4.39579 17.6913 4.46619 17.5161 4.62459 17.3589C5.09978 16.8828 5.57058 16.3978 6.04137 15.9172C6.10737 15.8498 6.16457 15.787 6.16457 15.6702C6.16017 15.0998 6.19097 14.5339 6.28777 13.9725C6.31856 13.8063 6.30537 13.7165 6.09417 13.7299C5.73777 13.7524 5.33738 13.6491 5.02939 13.7748C4.73019 13.9006 4.51899 14.2509 4.2682 14.5069C3.7182 15.0683 3.16381 15.6253 2.61822 16.1912C2.45982 16.3574 2.28383 16.4382 2.05503 16.4337C1.54904 16.4247 1.04304 16.4337 0.537052 16.4292C0.207057 16.4292 -0.00854021 16.2451 0.000259654 15.9711C0.00905952 15.7061 0.211457 15.5354 0.532652 15.531C0.959446 15.531 1.38184 15.5265 1.80863 15.5354C1.94943 15.5399 2.05063 15.4995 2.15183 15.3917C2.89542 14.6237 3.64781 13.8692 4.38699 13.1012C4.57179 12.9125 4.76539 12.8227 5.02939 12.8317C5.46938 12.8451 5.90937 12.8362 6.34937 12.8362C6.41536 12.8362 6.49896 12.8676 6.52536 12.7598C6.68816 12.1715 6.91696 11.61 7.19855 11.0576C7.15895 11.0486 7.13695 11.0396 7.11935 11.0441C6.58256 11.1429 6.20857 10.8914 5.86097 10.4962C5.47818 10.0516 5.05138 9.64734 4.63779 9.23863C4.46179 9.06346 4.38699 8.87034 4.39139 8.61882C4.40019 7.90022 4.39139 7.18161 4.39579 6.463C4.39579 6.34173 4.36939 6.2519 4.277 6.17106C4.0746 5.97793 3.8766 5.77583 3.68741 5.56923C3.47181 5.33568 3.45861 5.08416 3.6478 4.89104C3.837 4.69791 4.0834 4.71139 4.30779 4.93595C4.57179 5.19645 4.82699 5.46593 5.08658 5.72642C5.21858 5.86116 5.27578 6.01836 5.27138 6.21148C5.26698 6.95255 5.27138 7.69361 5.26698 8.43468C5.26698 8.55595 5.29778 8.64128 5.38138 8.73111C5.81257 9.16227 6.23497 9.59344 6.65736 10.0336C6.73656 10.1144 6.81136 10.1504 6.92576 10.1504C7.80574 10.1549 7.80574 10.1549 8.38213 9.48116C8.43933 9.41379 8.44373 9.37786 8.37773 9.31947C7.62535 8.64128 7.80574 7.66218 8.74293 7.10525C8.98933 6.95704 9.25332 6.84027 9.53052 6.7684C9.62292 6.74595 9.67571 6.71002 9.67571 6.59324C9.66251 5.8387 9.70211 5.08416 9.54812 4.33412C9.27972 3.05858 8.65493 2.01211 7.67814 1.17223C7.56815 1.07791 7.44495 0.99258 7.33055 0.898263C6.93016 0.583871 6.93456 0.291935 7.34375 0C7.41855 0 7.48895 0 7.56375 0C7.63855 0.0404218 7.71774 0.0763524 7.78374 0.125757C8.89253 0.907245 9.68451 1.94474 10.1597 3.23374C10.5029 4.16794 10.5777 5.13357 10.5557 6.12166C10.5469 6.5618 10.5557 6.56181 10.9737 6.55731C11.0397 6.55731 11.1057 6.54833 11.1717 6.5618C11.3961 6.61121 11.4445 6.51689 11.4401 6.29682C11.4181 5.48389 11.4269 4.66647 11.6337 3.87151C12.0649 2.2232 12.9845 0.934193 14.3836 0C14.4584 0 14.5288 0 14.6036 0C15.048 0.220074 15.0876 0.579379 14.674 0.884788C14.0492 1.34739 13.5257 1.89982 13.1209 2.57352C12.5797 3.47627 12.3333 4.46436 12.3157 5.51533C12.3113 5.86116 12.3201 6.2025 12.3113 6.54833C12.3069 6.68756 12.3553 6.74146 12.4785 6.77739C12.9581 6.91662 13.3937 7.1322 13.7325 7.51845C14.1988 8.04843 14.1856 8.74907 13.6797 9.24312C13.5433 9.37337 13.5345 9.44972 13.6841 9.562C13.7677 9.62488 13.8513 9.69674 13.8997 9.78207C14.0844 10.1054 14.3616 10.1593 14.7092 10.1638C15.0788 10.1683 15.3384 10.065 15.5804 9.78207C15.884 9.42726 16.2228 9.10389 16.5572 8.78051C16.6804 8.65925 16.72 8.53798 16.72 8.3718C16.7112 7.66218 16.72 6.94806 16.7156 6.23843C16.7112 6.01836 16.7816 5.84769 16.9356 5.69947C17.1996 5.43898 17.446 5.16501 17.7188 4.909C17.9872 4.65749 18.3524 4.75181 18.458 5.08865C18.5196 5.28627 18.436 5.43898 18.3084 5.57372C18.1148 5.78032 17.9212 5.98243 17.7188 6.17555C17.6308 6.26089 17.6044 6.35071 17.6044 6.47198C17.6088 7.19957 17.6 7.92267 17.6088 8.65026C17.6132 8.88381 17.5384 9.06347 17.3756 9.22964C16.8784 9.72818 16.3812 10.2267 15.9016 10.7387C15.686 10.9678 15.4572 11.089 15.1448 11.0531C15.0392 11.0396 14.9292 11.0531 14.7928 11.0531C15.0832 11.619 15.312 12.1849 15.4748 12.7733C15.5056 12.8811 15.5848 12.8496 15.6508 12.8496C16.104 12.8496 16.5616 12.8586 17.0148 12.8496C17.2436 12.8451 17.4196 12.9215 17.5824 13.0877C18.3216 13.8467 19.0652 14.6012 19.8 15.3648C19.9364 15.504 20.0684 15.5624 20.2576 15.5534C20.6623 15.5399 21.0627 15.5489 21.4675 15.5489C21.7887 15.5489 21.9955 15.7241 21.9999 15.9891C22.0043 16.263 21.7931 16.4472 21.4631 16.4472C20.9483 16.4472 20.438 16.4427 19.9232 16.4517C19.7076 16.4562 19.5448 16.3753 19.3952 16.2226C18.634 15.4411 17.8684 14.6686 17.1116 13.8871C17.0148 13.7883 16.9224 13.7479 16.786 13.7524C16.4692 13.7614 16.1568 13.7614 15.84 13.7524C15.7212 13.7479 15.6904 13.7793 15.708 13.9006C15.8004 14.5069 15.8444 15.1178 15.84 15.7331C15.84 15.8319 15.906 15.8768 15.9632 15.9307C16.4296 16.4068 16.8916 16.8873 17.3624 17.3589C17.5296 17.5251 17.6088 17.7137 17.6044 17.9563C17.5956 19.0207 17.6044 20.0806 17.5956 21.1451C17.5956 21.3292 17.6528 21.4191 17.8156 21.4909C18.2204 21.684 18.612 21.8996 19.0124 22.0972C19.2104 22.1961 19.3644 22.3263 19.3556 22.5688C19.3468 22.7934 19.206 22.9281 19.008 23C18.9332 23 18.8628 23 18.788 23C18.2292 22.7126 17.6748 22.4116 17.1116 22.1377C16.8344 22.0029 16.7112 21.8143 16.7156 21.4909C16.7288 20.3861 16.72 19.2767 16.72 18.1718C16.72 18.1 16.7508 18.0146 16.6936 17.9563C16.39 17.6419 16.0776 17.332 15.752 16.9951C15.7344 17.0849 15.7212 17.1343 15.7124 17.1838C15.5276 18.3964 15.1668 19.5507 14.5288 20.5971C13.9304 21.5852 13.1781 22.3982 12.0781 22.8069C11.8581 22.8877 11.6249 22.9371 11.3961 23C11.1013 23 10.8109 23 10.5161 23C10.4897 22.9236 10.4193 22.9416 10.3665 22.9281C9.42932 22.7305 8.69893 22.1916 8.08734 21.464C7.21615 20.431 6.71896 19.2138 6.41976 17.9024C6.35376 17.6104 6.30537 17.314 6.23937 16.9861C5.94017 17.296 5.66737 17.579 5.39018 17.853C5.30218 17.9383 5.27138 18.0281 5.27578 18.1449C5.28018 19.2677 5.27138 20.3906 5.28018 21.5134C5.28458 21.8053 5.17458 21.985 4.91939 22.1107C4.343 22.3937 3.7798 22.6991 3.20781 22.9955C3.12861 22.9865 3.04061 22.9865 2.95262 22.9865ZM11.4445 22.0478C11.5941 22.0029 11.7217 21.9715 11.8449 21.9221C12.7161 21.5807 13.3233 20.925 13.7721 20.1301C15.048 17.8709 15.2592 15.4681 14.6168 12.9619C14.5904 12.8631 14.5508 12.8317 14.454 12.8317C13.4949 12.8362 12.5313 12.8362 11.5721 12.8317C11.4797 12.8317 11.4401 12.8541 11.4489 12.9574C11.4577 13.0832 11.4577 13.2134 11.4401 13.3392C11.4093 13.5727 11.2157 13.7389 11.0001 13.7299C10.7933 13.7254 10.6129 13.5638 10.5777 13.3437C10.5601 13.2359 10.5601 13.1191 10.5689 13.0068C10.5821 12.8721 10.5469 12.8317 10.4061 12.8317C9.46892 12.8407 8.52733 12.8407 7.59015 12.8317C7.45815 12.8317 7.42295 12.8811 7.38775 13.0023C6.94336 14.6327 6.93456 16.263 7.33935 17.9024C7.63415 19.106 8.12254 20.2154 8.98933 21.1181C9.42492 21.5718 9.93091 21.9131 10.5689 22.0389C10.5689 21.9401 10.5689 21.8547 10.5689 21.7739C10.5689 20.1929 10.5689 18.6165 10.5689 17.0355C10.5689 16.9457 10.5689 16.8559 10.5909 16.7706C10.6393 16.5684 10.8109 16.4337 11.0045 16.4337C11.1981 16.4337 11.3741 16.5684 11.4225 16.7661C11.4445 16.8604 11.4445 16.9592 11.4445 17.0535C11.4445 18.7063 11.4445 20.3636 11.4445 22.0478ZM14.2384 11.9334C13.8865 11.1429 13.4377 10.4648 12.7953 9.93029C12.7117 9.86292 12.6457 9.87639 12.5533 9.90334C11.5237 10.2177 10.4897 10.2222 9.46012 9.90334C9.34572 9.86741 9.27532 9.88088 9.18292 9.95724C8.87053 10.2222 8.59773 10.5231 8.36453 10.86C8.13574 11.1923 7.92454 11.5382 7.77934 11.9334C9.93531 11.9334 12.0693 11.9334 14.2384 11.9334ZM11.0001 7.46007C10.8901 7.46007 10.7801 7.45108 10.6701 7.46007C10.0893 7.51845 9.52172 7.61277 9.04212 7.98555C8.73413 8.22359 8.73853 8.44816 9.03333 8.69069C9.32372 8.93322 9.67132 9.05448 10.0321 9.13083C10.9737 9.32396 11.8977 9.29252 12.7689 8.83441C12.9713 8.73111 13.1957 8.59637 13.1913 8.33587C13.1869 8.07987 12.9581 7.95411 12.7601 7.84183C12.2101 7.54091 11.6117 7.46007 11.0001 7.46007Z" fill="#02E602"/>
</svg>
