<svg width="23" height="23" viewBox="0 0 23 23" fill="none" xmlns="http://www.w3.org/2000/svg">
<path fill-rule="evenodd" clip-rule="evenodd" d="M4.45625 16.28C4.5232 16.1931 4.61001 16.1225 4.70982 16.0739C4.80962 16.0253 4.91967 16 5.03125 16H8.625C8.81562 16 8.99844 16.0737 9.13323 16.205C9.26802 16.3363 9.34375 16.5143 9.34375 16.7C9.34375 16.8857 9.26802 17.0637 9.13323 17.195C8.99844 17.3263 8.81562 17.4 8.625 17.4H5.39063L2.15625 21.6H20.8438L17.6094 17.4H14.375C14.1844 17.4 14.0016 17.3263 13.8668 17.195C13.732 17.0637 13.6562 16.8857 13.6562 16.7C13.6562 16.5143 13.732 16.3363 13.8668 16.205C14.0016 16.0737 14.1844 16 14.375 16H17.9688C18.0803 16 18.1904 16.0253 18.2902 16.0739C18.39 16.1225 18.4768 16.1931 18.5437 16.28L22.8562 21.88C22.9363 21.984 22.9851 22.1077 22.9971 22.2371C23.0091 22.3666 22.9838 22.4968 22.9241 22.613C22.8644 22.7293 22.7727 22.8271 22.6591 22.8955C22.5456 22.9638 22.4147 23 22.2812 23H0.71875C0.58527 23 0.454426 22.9638 0.340881 22.8955C0.227336 22.8271 0.135575 22.7293 0.0758808 22.613C0.0161865 22.4968 -0.00908271 22.3666 0.00290458 22.2371C0.0148919 22.1077 0.0636621 21.984 0.14375 21.88L4.45625 16.28Z" fill="#02E602"/>
<path fill-rule="evenodd" clip-rule="evenodd" d="M12 1.42808C11.4091 1.42808 10.8239 1.53894 10.2779 1.75432C9.73196 1.9697 9.23588 2.28539 8.81802 2.68337C8.40016 3.08135 8.06869 3.55381 7.84254 4.07379C7.6164 4.59377 7.5 5.15108 7.5 5.71391C7.5 6.27673 7.6164 6.83404 7.84254 7.35402C8.06869 7.874 8.40016 8.34647 8.81802 8.74445C9.23588 9.14242 9.73196 9.45811 10.2779 9.6735C10.8239 9.88888 11.4091 9.99974 12 9.99974C13.1935 9.99974 14.3381 9.54819 15.182 8.74445C16.0259 7.9407 16.5 6.85058 16.5 5.71391C16.5 4.57724 16.0259 3.48712 15.182 2.68337C14.3381 1.87962 13.1935 1.42808 12 1.42808ZM6 5.71391C6.00011 4.6142 6.33339 3.53788 6.95984 2.6141C7.5863 1.69032 8.47932 0.958313 9.53176 0.505922C10.5842 0.0535312 11.7513 -0.100029 12.8931 0.0636674C14.0349 0.227364 15.1029 0.701363 15.9688 1.42879C16.8348 2.15621 17.462 3.10617 17.7751 4.16466C18.0883 5.22315 18.0741 6.34522 17.7343 7.39622C17.3945 8.44722 16.7434 9.38251 15.8593 10.0899C14.9752 10.7972 13.8956 11.2466 12.75 11.3841V19.2857C12.75 19.4751 12.671 19.6568 12.5303 19.7908C12.3897 19.9247 12.1989 20 12 20C11.8011 20 11.6103 19.9247 11.4697 19.7908C11.329 19.6568 11.25 19.4751 11.25 19.2857V11.3855C9.79945 11.2114 8.46553 10.5389 7.49882 9.49434C6.53211 8.44974 5.99913 7.10492 6 5.71248V5.71391Z" fill="#02E602"/>
</svg>
