<svg width="40" height="40" viewBox="0 0 40 40" fill="none" xmlns="http://www.w3.org/2000/svg">
<circle cx="20" cy="20" r="19" stroke="#02E602" stroke-width="2"/>
<path d="M18.342 24.5061C18.294 25.6047 17.6555 26.2166 16.7939 26.6246C16.0112 26.9931 15.1942 27.1148 14.3566 26.8607C13.5671 26.6246 13.1448 26.0448 13.1105 25.1896C13.1105 25.1681 13.1071 25.1502 13.1071 25.1502C12.8565 25.254 12.6196 25.3864 12.3622 25.4544C11.5898 25.6512 10.9067 25.4257 10.3025 24.9212C9.61939 24.3522 9.18686 23.615 9.03582 22.7132C8.85731 21.6611 9.35507 20.7844 10.3265 20.4372C10.3643 20.4229 10.3986 20.4086 10.4501 20.3871C10.1755 20.1975 9.94207 19.9792 9.76013 19.7072C9.3585 19.0989 9.26581 18.4332 9.46491 17.7354C9.77043 16.6654 10.4295 15.9068 11.4422 15.5346C12.345 15.2054 13.138 15.4416 13.8074 16.1501C13.8486 16.1931 13.8863 16.236 13.9378 16.2968C13.9584 16.211 13.9721 16.143 13.9893 16.075C14.2262 15.1159 14.9093 14.5362 15.8773 14.5613C17.0754 14.5935 18.0365 15.1374 18.6785 16.2038C19.0973 16.8945 19.1247 17.6388 18.7952 18.3903C18.7849 18.4189 18.7746 18.444 18.7574 18.4833C18.8192 18.4833 18.8776 18.4869 18.9325 18.4833C19.6808 18.4547 20.206 18.809 20.5287 19.4997C20.8342 20.1545 20.8617 20.8523 20.7587 21.5573C20.6832 22.0905 20.5081 22.5915 20.2163 23.0388C19.8868 23.5398 19.4508 23.8762 18.8364 23.9728C19.7735 24.8245 20.6935 25.6583 21.6409 26.5172C21.6409 26.4349 21.6409 26.3848 21.6409 26.3347C21.6409 24.6134 21.6409 22.8885 21.6444 21.1673C21.6444 21.0706 21.665 20.9704 21.6993 20.881C22.2966 19.3708 22.8973 17.8607 23.4981 16.3541C23.5152 16.3112 23.529 16.2682 23.5427 16.236C23.3367 16.2253 23.1308 16.2324 22.9317 16.1966C22.482 16.1108 22.1318 15.8388 21.8503 15.4702C21.3972 14.8797 21.1844 14.1891 21.126 13.4447C21.0814 12.865 21.1397 12.3032 21.3972 11.7736C21.7096 11.1366 22.3652 10.7537 23.0518 10.8181C23.2852 10.8396 23.5152 10.8861 23.7589 10.9219C23.7795 10.8038 23.7967 10.6749 23.8242 10.5461C24.0267 9.50833 24.8162 8.8964 25.8255 9.01449C26.9068 9.13974 27.7856 9.65863 28.4241 10.5783C28.8223 11.1509 28.9356 11.7843 28.6575 12.4571C28.5442 12.7326 28.3589 12.9616 28.146 13.162C28.1186 13.1871 28.0911 13.2121 28.0636 13.2408C28.2147 13.4018 28.3726 13.5485 28.5099 13.7131C29.217 14.5756 29.1553 15.667 28.3486 16.4328C27.5968 17.145 26.7043 17.4742 25.695 17.442C25.0771 17.4205 24.5451 17.1879 24.164 16.6297C24.1434 16.6726 24.1263 16.7048 24.1125 16.737C23.5358 18.1899 22.9557 19.6428 22.3824 21.0993C22.3618 21.1494 22.3481 21.2066 22.3481 21.2603C22.3446 22.2587 22.3481 23.2571 22.3481 24.2591C22.3481 24.2842 22.3515 24.3092 22.3515 24.3379C22.3652 24.3379 22.379 24.345 22.3893 24.3414C23.2852 24.0337 24.1812 23.7223 25.0325 23.2858C25.6504 22.9709 26.1035 22.4913 26.4125 21.8579C26.4262 21.8293 26.4399 21.7971 26.4674 21.7434C26.361 21.7649 26.2752 21.7792 26.1893 21.8007C25.5646 21.9438 25.0462 22.2838 24.5965 22.7454C24.5004 22.8456 24.4009 22.9351 24.2533 22.9172C24.1125 22.9029 24.0027 22.8277 23.9512 22.6846C23.8997 22.5378 23.9237 22.4019 24.0301 22.2909C24.5142 21.7899 25.0531 21.382 25.7156 21.1708C26.1276 21.042 26.5498 20.9597 26.9823 20.9597C27.2501 20.9597 27.4114 21.1816 27.3325 21.45C26.9686 22.6416 26.2683 23.5184 25.1629 24.0408C24.3013 24.4488 23.4088 24.7673 22.5094 25.0715C22.3824 25.1144 22.3446 25.1717 22.3446 25.3112C22.3481 28.7323 22.3481 32.1498 22.3446 35.5709C22.3446 35.6568 22.3309 35.7534 22.2932 35.8286C22.2211 35.9717 22.0563 36.029 21.9087 35.9861C21.7508 35.9395 21.6512 35.8107 21.6512 35.6354C21.6512 35.3419 21.6512 35.0485 21.6512 34.755C21.6512 32.3932 21.6512 30.0349 21.6547 27.6731C21.6547 27.5407 21.6203 27.4548 21.5242 27.3689C20.491 26.442 19.4646 25.5045 18.4382 24.574C18.4004 24.5562 18.3798 24.5383 18.342 24.5061ZM11.4971 20.9704C11.2808 20.9955 11.0714 21.0062 10.862 21.042C10.0245 21.1887 9.58849 21.7613 9.71894 22.5593C9.85968 23.4074 10.2888 24.0659 10.9856 24.5204C11.4902 24.8496 12.0292 24.9033 12.5578 24.5812C12.7501 24.4631 12.9389 24.3164 13.0865 24.141C13.2993 23.887 13.471 23.5971 13.6563 23.3144C13.749 23.1748 13.8726 23.1068 14.0374 23.1319C14.1747 23.1534 14.3017 23.2715 14.312 23.4253C14.3188 23.5184 14.2948 23.6221 14.2536 23.708C14.0751 24.0695 13.9138 24.4345 13.8348 24.8353C13.6941 25.5403 13.9756 26.0234 14.6484 26.1844C14.8681 26.2381 15.0981 26.256 15.3212 26.2452C16.0043 26.2094 16.636 25.9947 17.1612 25.5188C17.4736 25.2361 17.6658 24.8925 17.6143 24.4416C17.58 24.1482 17.4564 23.887 17.2813 23.6615C17.1234 23.4575 16.9449 23.2715 16.7698 23.0854C16.6703 22.978 16.6222 22.8563 16.6566 22.7096C16.6875 22.5736 16.7767 22.4806 16.9037 22.4484C17.0479 22.409 17.168 22.4663 17.2779 22.5665C17.5216 22.7883 17.7825 22.9816 18.0812 23.1176C18.6853 23.386 19.2002 23.2357 19.5847 22.6846C19.8216 22.3446 19.9554 21.9581 20.031 21.5466C20.1305 20.9883 20.1305 20.4301 19.9177 19.8969C19.6877 19.3207 19.2689 19.106 18.6922 19.2527C18.2665 19.3601 17.9027 19.5927 17.5491 19.8504C17.35 19.9971 17.1371 19.972 17.0136 19.7931C16.8934 19.6142 16.938 19.4066 17.1303 19.2563C17.4324 19.0201 17.7138 18.7625 17.937 18.444C18.3764 17.8106 18.4347 17.145 18.0434 16.5438C17.5147 15.7279 16.7595 15.3056 15.8155 15.2984C15.2526 15.2913 14.8441 15.6026 14.6999 16.1394C14.6278 16.4042 14.59 16.6941 14.6072 16.966C14.6347 17.374 14.7239 17.7819 14.796 18.1863C14.8475 18.4762 14.6347 18.716 14.3669 18.6408C14.2262 18.6014 14.1506 18.5012 14.1094 18.3545C13.9412 17.7426 13.7215 17.1557 13.3027 16.6726C12.8668 16.168 12.2695 15.9963 11.6585 16.236C10.8758 16.5402 10.3746 17.1342 10.1274 17.9609C10.0553 18.2006 10.0451 18.4511 10.0897 18.7016C10.1892 19.2599 10.5394 19.6177 10.9959 19.8754C11.4388 20.1295 11.9228 20.2512 12.4171 20.337C12.6471 20.3764 12.7741 20.5517 12.7398 20.7557C12.702 20.9812 12.5338 21.0921 12.3004 21.0599C12.0361 21.0205 11.7649 20.9991 11.4971 20.9704ZM24.4318 11.1938C24.4386 11.1938 24.4455 11.1974 24.4524 11.1974C24.4524 11.2618 24.4489 11.3262 24.4524 11.3907C24.4764 11.727 24.2361 11.906 23.9306 11.795C23.6834 11.7056 23.4294 11.6161 23.1719 11.5696C22.5575 11.4551 22.1009 11.7521 21.9087 12.3676C21.7817 12.7648 21.7782 13.1728 21.8332 13.5807C21.9121 14.1497 22.0941 14.6758 22.4751 15.1052C22.7223 15.3843 23.0278 15.5597 23.4019 15.4774C23.601 15.4344 23.7967 15.3342 23.9786 15.2304C24.267 15.0658 24.5382 15.209 24.5553 15.5525C24.5553 15.5883 24.5588 15.6205 24.5588 15.6563C24.5965 16.168 24.878 16.5223 25.3552 16.6547C25.7225 16.7585 26.0932 16.7406 26.4571 16.6475C27.075 16.4937 27.6208 16.2145 28.0293 15.6885C28.1803 15.4953 28.2765 15.2734 28.2799 15.0157C28.2868 14.665 28.1357 14.3787 27.9126 14.1426C27.7066 13.9278 27.4732 13.7382 27.2432 13.5521C27.0235 13.3696 27.0269 13.0762 27.2604 12.9151C27.4148 12.8078 27.5659 12.6968 27.7066 12.5716C27.8748 12.4213 27.9984 12.2316 28.0568 12.0062C28.1563 11.6197 28.0362 11.2761 27.8165 10.9755C27.2775 10.2348 26.5566 9.81251 25.6641 9.74094C25.0909 9.69442 24.6755 10.0093 24.5245 10.5926C24.4764 10.7823 24.4627 10.9899 24.4318 11.1938Z" fill="#02E602"/>
<path d="M15.1425 20.1742C15.2494 19.5859 15.5281 19.2591 15.9405 19.2101C16.3644 19.157 16.7424 19.3735 16.9142 19.7698C17.0822 20.1538 16.9982 20.6195 16.708 20.9095C16.3758 21.2404 15.9825 21.2527 15.4327 20.93C15.3792 21.0648 15.3219 21.1955 15.2838 21.3303C15.2723 21.363 15.3258 21.4202 15.3525 21.4651C15.5663 21.8205 15.5816 22.1882 15.3716 22.5477C15.1577 22.9072 14.837 23.042 14.4475 22.9889C14.0962 22.9398 13.8022 22.6375 13.7144 22.2576C13.5922 21.7388 13.8977 21.1914 14.3826 21.0811C14.5124 21.0525 14.5888 20.9994 14.6041 20.8482C14.5201 20.7625 14.4361 20.7502 14.3177 20.8197C13.974 21.0239 13.5387 20.9504 13.2638 20.6522C12.9813 20.3499 12.9202 19.8842 13.1073 19.5083C13.2905 19.1366 13.6877 18.9364 14.0733 19.0181C14.4628 19.0998 14.7645 19.4348 14.795 19.8556C14.8026 19.9822 14.8485 20.0394 14.9477 20.0802C15.0126 20.1007 15.0699 20.1334 15.1425 20.1742Z" fill="#02E602"/>
<path d="M25.497 13C25.2203 13 24.9971 12.7725 25 12.497C25.003 12.2216 25.2292 12 25.503 12C25.7768 12 26.0029 12.2305 26 12.503C26 12.7815 25.7738 13 25.497 13Z" fill="#02E602"/>
<path d="M24.503 12C24.7844 12 25.003 12.2222 25 12.5015C25 12.7808 24.7784 13 24.497 13C24.2186 13 23.997 12.7748 24 12.4955C24.003 12.2192 24.2216 12 24.503 12Z" fill="#02E602"/>
<path d="M24.509 13C24.7874 13.003 25.0059 13.2252 24.9999 13.5075C24.9969 13.7867 24.7724 14.0029 24.491 13.9999C24.2156 13.9969 23.9941 13.7717 24.0001 13.4895C24.0061 13.2102 24.2276 12.997 24.509 13Z" fill="#02E602"/>
</svg>
