<svg width="40" height="40" viewBox="0 0 40 40" fill="none" xmlns="http://www.w3.org/2000/svg">
<circle cx="20" cy="20" r="19" stroke="#02E602" stroke-width="2"/>
<path d="M13.5352 31.9941C13.3661 31.8946 13.1714 31.9004 12.9921 31.836C12.485 31.6602 12.0342 31.3791 11.6602 30.9573C11.1581 30.3891 10.6664 29.8209 10.1694 29.2468C9.96964 29.0125 9.9389 28.784 10.1182 28.538C10.5946 27.876 10.8713 27.1028 11.1069 26.3003C11.6243 24.5253 12.6233 23.219 14.0833 22.3813C14.8466 21.942 15.4921 21.3738 15.9276 20.5244C16.1222 20.1495 16.2708 19.7453 16.4808 19.3763C17.1161 18.2515 17.9409 17.3553 18.9911 16.7578C19.7595 16.3184 20.4101 15.7444 20.8558 14.8891C21.0453 14.5201 21.199 14.1276 21.3937 13.7644C22.0136 12.6104 22.8793 11.7903 23.95 11.2279C24.7594 10.8003 25.6047 10.4781 26.45 10.1501C27.2031 9.85718 27.8537 9.38855 28.3147 8.62703C28.3813 8.52158 28.4377 8.39857 28.4889 8.28141C28.5709 8.09982 28.699 7.99437 28.8783 8.00023C29.0576 8.00609 29.1805 8.11739 29.2625 8.30484C29.6057 9.10152 29.8209 9.94505 29.9233 10.8179C30.2512 13.5652 29.5032 15.9904 28.1457 18.2047C27.6846 18.9603 27.0391 19.5227 26.327 19.9562C25.7482 20.3077 25.1693 20.6533 24.7287 21.2332C24.4623 21.5847 24.2472 21.9654 24.0679 22.3813C23.5965 23.4768 22.9254 24.373 22.075 25.0994C21.7216 25.3982 21.3373 25.6325 20.948 25.8609C20.1898 26.3061 19.6058 26.9564 19.2318 27.835C18.6888 29.1062 17.9306 30.1548 16.8958 30.9339C16.1683 31.4845 15.3845 31.8536 14.5085 31.959C14.4932 31.959 14.4829 31.9883 14.4675 32C14.1653 31.9941 13.8477 31.9941 13.5352 31.9941ZM28.7912 9.50571C28.5606 9.78103 28.3506 10.0271 28.1098 10.2321C27.4848 10.7769 26.7574 11.058 26.0248 11.3275C25.4152 11.5501 24.826 11.8313 24.242 12.1359C23.1201 12.7217 22.3209 13.6707 21.7882 14.9301C21.2964 16.09 20.5484 16.9511 19.5392 17.5134C18.3405 18.1871 17.4491 19.2122 16.8599 20.583C16.3681 21.7311 15.6202 22.5805 14.6161 23.1429C14.1499 23.4065 13.7196 23.7345 13.3251 24.1211C12.5618 24.8592 12.1315 25.8258 11.8241 26.8861C11.6397 27.5246 11.4245 28.1455 11.0659 28.6903C10.9891 28.8075 11.0147 28.866 11.0967 28.9598C11.4655 29.3757 11.8292 29.7974 12.1981 30.2192C12.444 30.5004 12.7206 30.7171 13.0485 30.846C13.9757 31.215 14.8671 31.0452 15.7278 30.5941C16.9624 29.9556 17.8538 28.9012 18.4532 27.5187C18.945 26.3823 19.6827 25.527 20.6765 24.9647C21.8906 24.2852 22.7922 23.2542 23.3814 21.8659C23.5658 21.4265 23.8015 21.0282 24.0781 20.6591C24.5801 19.9855 25.2256 19.5461 25.9018 19.1478C26.6088 18.726 27.1979 18.1461 27.6539 17.3904C28.3199 16.2774 28.7604 15.0473 29.0217 13.741C29.2932 12.3175 29.2112 10.9175 28.7912 9.50571Z" fill="#02E602"/>
<path d="M26.9999 14.4834C26.9467 15.5495 26.4051 16.546 25.5347 17.2992C24.9351 17.8206 24.2629 18.0929 23.5037 17.9713C22.6816 17.838 22.0481 17.0327 22.0046 16.0362C21.9466 14.7326 22.4446 13.736 23.2329 12.9191C23.7358 12.3977 24.3209 12.079 24.9931 12.0095C26.144 11.8936 27.0096 12.8438 26.9999 14.4834ZM25.1672 12.9539C24.0259 12.9481 22.7735 14.4429 22.7831 15.7986C22.788 16.4301 23.0346 16.8473 23.5085 17.0095C23.7309 17.0848 23.9582 17.0848 24.1758 17.0153C25.2155 16.6735 25.9022 15.8855 26.173 14.6283C26.3761 13.6723 25.9264 12.9539 25.1672 12.9539Z" fill="#02E602"/>
<path d="M20.1509 18C21.3369 17.9942 22.1276 19.0987 21.983 20.5559C21.8142 22.2444 20.4884 23.8057 19.0806 23.985C18.0392 24.1122 17.21 23.4241 17.0364 22.2328C16.9159 21.4233 17.1039 20.6716 17.4655 19.9892C18.0006 18.9831 18.7383 18.2949 19.7363 18.0578C19.8664 18.0232 20.0111 18.0174 20.1509 18ZM20.1075 18.9541C20.0738 18.9599 19.9918 18.9599 19.9098 18.9773C18.9215 19.2201 18.2706 19.9545 17.9042 21.0474C17.7451 21.5158 17.7114 22.0131 17.9283 22.4757C18.1404 22.9441 18.6322 23.1465 19.1625 23.0135C20.1943 22.7475 21.0525 21.643 21.1923 20.394C21.2839 19.5497 20.8644 18.9599 20.1075 18.9541Z" fill="#02E602"/>
<path d="M16.1384 24C17.3232 23.9942 18.1082 25.0587 17.9878 26.5165C17.8433 28.2346 16.4466 29.8717 15.021 29.9932C13.7014 30.1031 12.7911 28.8709 13.0415 27.309C13.3016 25.695 14.3949 24.376 15.7386 24.0579C15.8735 24.0174 16.0083 24.0116 16.1384 24ZM16.1673 24.9487C15.0306 24.9487 13.788 26.4355 13.7929 27.7949C13.7977 28.4255 14.0433 28.8478 14.5153 29.004C14.7417 29.0792 14.9777 29.0792 15.1992 29.004C16.2251 28.6569 16.8994 27.8701 17.1691 26.6264C17.3762 25.6776 16.9234 24.9487 16.1673 24.9487Z" fill="#02E602"/>
<path d="M14.5134 27.9999C14.2275 28.0038 14.024 27.8788 14.002 27.703C13.98 27.5468 14.1395 27.3983 14.3759 27.3749C14.6728 27.3436 14.9312 27.2577 15.1622 27.1249C15.2172 27.0936 15.2776 27.0624 15.3436 27.0389C15.5361 26.9647 15.767 26.9999 15.899 27.117C16.0309 27.2303 16.0419 27.4061 15.8825 27.5155C15.4976 27.789 15.0357 27.9648 14.5134 27.9999Z" fill="#02E602"/>
<path d="M16.9995 26.4345C16.9879 26.7485 16.7381 27.0102 16.4477 26.9997C16.198 26.9945 15.9888 26.7851 16.0005 26.5548C16.0121 26.2565 16.2677 25.9948 16.5407 26.0001C16.8078 26.0053 17.0111 26.199 16.9995 26.4345Z" fill="#02E602"/>
</svg>
