<svg width="40" height="40" viewBox="0 0 40 40" fill="none" xmlns="http://www.w3.org/2000/svg">
<circle cx="20" cy="20" r="19" stroke="#02E602" stroke-width="2"/>
<path d="M19.874 31.9936C19.1911 31.4959 18.6231 30.9026 18.2593 30.1305C18.2018 30.0029 18.1444 29.8753 18.0806 29.7286C17.6976 30.1114 17.2828 30.4368 16.8105 30.6793C16.4659 30.8515 16.1085 30.9791 15.7383 31.0748C15.4958 31.1386 15.3299 31.0685 15.2022 30.8579C14.7555 30.1242 14.513 29.3266 14.5066 28.4652C14.5066 28.2802 14.4811 28.2355 14.2896 28.3185C13.5237 28.6375 12.726 28.7268 11.9027 28.612C11.5325 28.5609 11.4368 28.4652 11.3857 28.0952C11.2708 27.2657 11.3666 26.4618 11.6857 25.6898C11.7559 25.5239 11.7112 25.5047 11.5517 25.4983C10.6901 25.4856 9.8923 25.2623 9.15197 24.8156C8.89669 24.6625 8.85201 24.5413 8.92222 24.2478C9.13921 23.3545 9.59234 22.5889 10.2625 21.9317C10.0965 21.8551 9.94336 21.7913 9.79657 21.7147C9.12006 21.3766 8.56482 20.898 8.12445 20.2855C7.95852 20.0494 7.95852 19.9282 8.12445 19.6921C8.62864 18.9903 9.27962 18.4735 10.0774 18.1353C10.1348 18.1098 10.1923 18.0843 10.2625 18.0524C9.88592 17.6823 9.56681 17.2803 9.33068 16.8209C9.14559 16.47 9.01157 16.0936 8.90945 15.7108C8.84563 15.4747 8.92222 15.3024 9.12645 15.1812C9.86039 14.7345 10.6582 14.4921 11.5197 14.4921C11.7112 14.4921 11.7367 14.4602 11.6602 14.2752C11.341 13.4904 11.2517 12.68 11.3793 11.8442C11.4304 11.5252 11.5261 11.4295 11.8452 11.3848C12.6813 11.2572 13.4982 11.3465 14.2768 11.6719C14.4683 11.7485 14.4874 11.7038 14.4874 11.5252C14.4938 10.6702 14.73 9.87904 15.1703 9.15167C15.3235 8.89645 15.4448 8.85179 15.7383 8.92197C16.6382 9.13891 17.3977 9.59192 18.0487 10.2619C18.1891 9.98751 18.2976 9.71953 18.4507 9.47069C18.7826 8.94111 19.1911 8.4881 19.7016 8.12442C19.9378 7.95853 20.059 7.95853 20.2952 8.12442C20.9972 8.62847 21.5142 9.27928 21.8524 10.0768C21.8779 10.1343 21.9035 10.1917 21.9354 10.2619C22.3055 9.89818 22.6949 9.57916 23.148 9.34308C23.5054 9.15167 23.8883 9.01768 24.2776 8.91559C24.5138 8.85179 24.6861 8.92835 24.8137 9.13253C25.2605 9.86628 25.4966 10.6638 25.503 11.5252C25.503 11.7166 25.5349 11.7421 25.72 11.6719C26.505 11.3529 27.3155 11.2636 28.1516 11.3848C28.4707 11.4359 28.5664 11.5316 28.6111 11.8506C28.7387 12.6864 28.6494 13.5031 28.3239 14.2815C28.2473 14.4729 28.2856 14.4921 28.4707 14.4921C29.3259 14.4985 30.1173 14.7282 30.8448 15.1748C31.1001 15.3279 31.1448 15.4428 31.0746 15.7427C30.864 16.6423 30.4109 17.4016 29.7343 18.0524C29.9641 18.1672 30.1875 18.2693 30.4045 18.3842C31.0554 18.7415 31.566 19.2647 32 19.858C32 19.9537 32 20.0431 32 20.1388C31.566 20.7322 31.0554 21.2554 30.4045 21.6127C30.1939 21.7275 29.9705 21.8296 29.7343 21.9444C30.4045 22.6016 30.8576 23.3545 31.0746 24.2542C31.1448 24.5477 31.1001 24.6625 30.8448 24.822C30.1109 25.2686 29.3067 25.4983 28.4452 25.5047C28.2856 25.5047 28.2473 25.5302 28.3111 25.6961C28.6302 26.4682 28.726 27.2721 28.6111 28.1016C28.56 28.4716 28.4643 28.5609 28.0941 28.612C27.2708 28.7268 26.4731 28.6375 25.7072 28.3185C25.5158 28.2419 25.4966 28.2866 25.4966 28.4716C25.4902 29.333 25.2477 30.1305 24.801 30.8643C24.6733 31.0748 24.5074 31.1386 24.2649 31.0812C23.8692 30.9791 23.4926 30.8388 23.1352 30.6537C22.6821 30.4177 22.2928 30.0986 21.929 29.7349C21.8652 29.8817 21.8077 30.0093 21.7503 30.1369C21.3865 30.9089 20.8185 31.5023 20.1356 32C20.059 31.9936 19.9633 31.9936 19.874 31.9936ZM25.6753 19.9984C25.6817 16.8975 23.1097 14.3262 20.008 14.339C16.8999 14.3517 14.3853 16.8592 14.3534 19.9856C14.3215 23.0674 16.8871 25.6387 20.008 25.6579C23.0969 25.6706 25.6689 23.1057 25.6753 19.9984ZM24.7499 11.8506C24.7563 10.9829 24.6159 10.4086 24.3542 9.85352C24.2968 9.73229 24.2457 9.70677 24.1053 9.75143C22.5034 10.2938 21.4248 11.8442 21.4695 13.5286C21.4759 13.6754 21.5078 13.752 21.6609 13.7902C22.2226 13.9306 22.7523 14.1539 23.2501 14.4538C23.3586 14.5176 23.416 14.5049 23.5118 14.4219C24.3223 13.6563 24.7244 12.7119 24.7499 11.8506ZM15.2724 28.1271C15.2724 29.0267 15.4192 29.6392 15.6745 30.1369C15.732 30.2518 15.783 30.2709 15.9043 30.2326C17.5062 29.7094 18.6039 28.1271 18.5529 26.4363C18.5465 26.2768 18.489 26.2193 18.3486 26.1874C17.7934 26.0471 17.27 25.8301 16.785 25.5366C16.6701 25.4664 16.6063 25.4792 16.5042 25.5685C15.6937 26.3469 15.2916 27.2912 15.2724 28.1271ZM24.7563 28.2355C24.7371 27.304 24.3351 26.3469 23.5181 25.5749C23.4479 25.5111 23.3969 25.4473 23.282 25.5175C22.7587 25.8365 22.197 26.0598 21.6099 26.2129C21.5014 26.2385 21.4822 26.2959 21.4822 26.3916C21.4759 26.5894 21.4822 26.7808 21.5078 26.9722C21.7312 28.5801 22.6119 29.6584 24.1245 30.2262C24.2521 30.2709 24.2968 30.2454 24.3542 30.1305C24.6159 29.5946 24.7499 29.0267 24.7563 28.2355ZM15.2724 11.7868C15.2916 12.68 15.6873 13.6307 16.4978 14.4028C16.5935 14.4985 16.6637 14.524 16.7914 14.4474C17.2764 14.1475 17.7998 13.9306 18.355 13.7966C18.5018 13.7583 18.5465 13.6945 18.5529 13.5414C18.6039 11.857 17.5253 10.3065 15.9234 9.75781C15.7702 9.70677 15.7256 9.74505 15.6617 9.87266C15.4065 10.415 15.2724 10.9765 15.2724 11.7868ZM11.8261 15.2577C10.9964 15.2514 10.4093 15.3917 9.85401 15.6661C9.75189 15.7171 9.72637 15.7618 9.75828 15.8766C10.2561 17.4718 11.9154 18.6202 13.5939 18.5373C13.7152 18.5309 13.7726 18.4926 13.7982 18.3714C13.9386 17.8035 14.1619 17.2612 14.4683 16.7635C14.5321 16.6614 14.5257 16.5976 14.4428 16.5019C13.6769 15.6852 12.7323 15.2833 11.8261 15.2577ZM26.5497 18.5309C28.1899 18.5564 29.7088 17.4718 30.2449 15.9213C30.296 15.7682 30.2768 15.7108 30.13 15.6406C28.6047 14.8941 26.7347 15.245 25.586 16.4955C25.4902 16.604 25.503 16.6678 25.5668 16.7763C25.8412 17.2293 26.0582 17.7142 26.1859 18.231C26.2433 18.4671 26.3327 18.5947 26.5497 18.5309ZM11.5963 24.7327C12.6749 24.7327 13.6897 24.2924 14.43 23.5013C14.5193 23.4056 14.5449 23.3418 14.4747 23.2269C14.1747 22.7292 13.9513 22.1997 13.8109 21.6382C13.779 21.4978 13.7152 21.4595 13.5748 21.4531C11.8835 21.3957 10.3135 22.4868 9.77742 24.0946C9.73275 24.235 9.77104 24.2861 9.88592 24.3371C10.422 24.5987 10.99 24.7327 11.5963 24.7327ZM28.1899 24.7327C29.0323 24.7327 29.6003 24.5987 30.1428 24.3371C30.2577 24.2797 30.3024 24.2414 30.2513 24.0946C29.7152 22.4932 28.1452 21.3957 26.4539 21.4531C26.3135 21.4595 26.2497 21.4914 26.2114 21.6318C26.0774 22.1933 25.854 22.7229 25.5541 23.2205C25.4838 23.3354 25.503 23.4056 25.5923 23.4949C26.3646 24.3116 27.3155 24.7135 28.1899 24.7327ZM13.6258 19.4242C13.6641 19.2838 13.5556 19.2966 13.4471 19.2966C12.6366 19.2966 11.8771 19.0988 11.1687 18.6968C11.0921 18.6521 11.0219 18.633 10.9262 18.6585C10.1604 18.8627 9.51576 19.2647 8.98604 19.858C8.89031 19.9601 8.89031 20.0239 8.98604 20.126C9.51576 20.7194 10.154 21.1214 10.9262 21.3192C10.9964 21.3383 11.0538 21.3511 11.1241 21.3064C11.858 20.8917 12.643 20.6747 13.4918 20.6875C13.6131 20.6875 13.6386 20.6492 13.6258 20.5344C13.5748 20.1834 13.5748 19.8134 13.6258 19.4242ZM29.0195 21.3511C29.0387 21.3447 29.0642 21.3383 29.0834 21.3319C29.862 21.1277 30.513 20.7258 31.0427 20.126C31.1448 20.0112 31.1129 19.9537 31.0299 19.858C30.5002 19.2647 29.8556 18.8691 29.0897 18.6649C29.0004 18.6394 28.943 18.6585 28.8728 18.6968C28.1516 19.1051 27.3793 19.3093 26.5497 19.3029C26.422 19.3029 26.3901 19.3412 26.4029 19.4624C26.4475 19.8134 26.4539 20.1643 26.4029 20.5152C26.3773 20.6811 26.4412 20.7066 26.588 20.7066C27.3921 20.7003 28.1452 20.9044 28.8472 21.2873C28.9047 21.3128 28.9493 21.3574 29.0195 21.3511ZM20.0144 13.5669C20.1931 13.5797 20.3654 13.5797 20.5377 13.6052C20.6845 13.6307 20.7228 13.5797 20.7228 13.4329C20.71 12.6226 20.9206 11.8634 21.3099 11.1551C21.3546 11.0786 21.3738 11.0148 21.3482 10.9127C21.144 10.147 20.7419 9.50259 20.1548 8.96663C20.0335 8.85817 19.9697 8.88369 19.8676 8.9794C19.2868 9.50897 18.8911 10.147 18.6869 10.9063C18.6677 10.9892 18.6613 11.053 18.706 11.1232C19.1145 11.8506 19.3251 12.629 19.3123 13.4712C19.3123 13.5861 19.3506 13.618 19.4591 13.6052C19.6442 13.5861 19.8293 13.5797 20.0144 13.5669ZM19.4719 26.3852C19.3187 26.3788 19.3123 26.3788 19.3123 26.5384C19.3187 27.3614 19.1145 28.1271 18.7124 28.8417C18.6677 28.9183 18.655 28.9884 18.6805 29.0841C18.8847 29.8434 19.2804 30.4815 19.8612 31.011C19.9633 31.1004 20.0271 31.1323 20.1484 31.0238C20.7355 30.4878 21.1376 29.8498 21.3418 29.0778C21.361 29.0076 21.3674 28.9502 21.3291 28.88C20.9142 28.1462 20.6972 27.355 20.7164 26.5128C20.7164 26.3852 20.659 26.3788 20.5568 26.3916C20.1931 26.4235 19.8229 26.4299 19.4719 26.3852ZM12.6621 12.1058C12.56 12.1058 12.4579 12.1122 12.3558 12.1058C12.1771 12.0867 12.126 12.1632 12.1197 12.3419C12.0878 13.1075 12.2537 13.8285 12.6366 14.4921C12.6813 14.5687 12.726 14.6261 12.8217 14.6516C13.6195 14.8685 14.3151 15.2705 14.8895 15.8703C14.9916 15.9787 15.0427 15.9468 15.1193 15.8511C15.3363 15.5831 15.5724 15.3343 15.8468 15.1238C15.9872 15.0153 15.9681 14.9515 15.8532 14.843C15.2852 14.2879 14.9023 13.6116 14.6789 12.8523C14.647 12.7375 14.5895 12.6673 14.4874 12.6099C13.9194 12.2908 13.3131 12.1122 12.6621 12.1058ZM12.6621 27.8846C13.3131 27.8719 13.9194 27.6996 14.4874 27.3806C14.5704 27.3359 14.6342 27.2849 14.6661 27.1828C14.8831 26.3852 15.2916 25.6898 15.8851 25.1155C15.9745 25.0262 15.9745 24.9815 15.8787 24.8986C15.6107 24.6816 15.3618 24.4456 15.1512 24.1712C15.0491 24.0372 14.9852 24.0181 14.8512 24.1521C14.296 24.7199 13.6195 25.1028 12.86 25.3197C12.7387 25.3516 12.6749 25.4154 12.6175 25.5175C12.3047 26.0853 12.1133 26.6915 12.1197 27.3487C12.126 27.9739 12.0239 27.8719 12.6621 27.8846ZM27.3538 12.0994C26.7092 12.1122 26.0901 12.2845 25.5158 12.6162C25.4392 12.6609 25.3753 12.6992 25.3498 12.8013C25.1264 13.6052 24.718 14.3071 24.1181 14.8877C24.0351 14.9706 24.0415 15.0153 24.1308 15.0855C24.4053 15.3088 24.6605 15.5512 24.8775 15.8256C24.9797 15.9596 25.0435 15.9532 25.1584 15.8384C25.72 15.2641 26.3965 14.8749 27.1687 14.658C27.2772 14.6261 27.341 14.5687 27.3921 14.4729C27.7112 13.9051 27.8963 13.2989 27.8963 12.6481C27.9027 12.0101 27.9984 12.1186 27.3538 12.0994ZM27.9091 27.3359C27.8963 26.6851 27.7176 26.079 27.3985 25.5111C27.3538 25.4282 27.3027 25.3644 27.1943 25.3388C26.4029 25.1219 25.7136 24.7199 25.1456 24.1329C25.0307 24.0181 24.9797 24.05 24.8967 24.1521C24.6797 24.42 24.4372 24.6689 24.1691 24.8794C24.0415 24.9815 24.0606 25.0453 24.1627 25.1474C24.7371 25.7089 25.1264 26.3852 25.3434 27.1573C25.3753 27.2657 25.4264 27.3295 25.5221 27.3806C26.0901 27.6996 26.6964 27.891 27.3474 27.8846C27.9984 27.8846 27.8899 27.9803 27.9091 27.3359Z" fill="#02E602"/>
<path d="M21.9998 17.508C21.9919 17.7778 21.7636 18 21.496 18C21.2362 18 21 17.7619 21 17.5001C21 17.2224 21.2362 16.9923 21.5196 17.0002C21.803 17.0081 22.0077 17.2303 21.9998 17.508Z" fill="#02E602"/>
<path d="M23 19.4921C23 19.7576 22.7857 19.992 22.5159 19.9998C22.2381 20.0076 22 19.7733 22 19.4921C22 19.2265 22.2302 19 22.5 19C22.7698 19 23 19.2265 23 19.4921Z" fill="#02E602"/>
<path d="M18.5317 21.0008C18.8094 21.0167 19.0077 21.2466 18.9998 21.5241C18.9839 21.8016 18.7618 22.0077 18.4841 21.9998C18.2223 21.9919 17.9923 21.7461 18.0002 21.4844C18.0002 21.2069 18.2461 20.9849 18.5317 21.0008Z" fill="#02E602"/>
</svg>
