<svg width="15" height="17" viewBox="0 0 15 17" fill="none" xmlns="http://www.w3.org/2000/svg">
<path d="M7.87898 0.0143445C8.8205 0 9.75663 0.00850045 10.6917 0C10.7483 1.08434 11.1444 2.18887 11.9504 2.9555C12.7549 3.74126 13.8928 4.10094 15 4.2226V7.07503C13.9624 7.04156 12.92 6.82905 11.9785 6.38915C11.5684 6.20639 11.1864 5.97104 10.8125 5.73037C10.8077 7.80023 10.8212 9.86743 10.799 11.9288C10.7429 12.9191 10.4111 13.9046 9.82623 14.7207C8.88525 16.0791 7.25202 16.9648 5.57455 16.9924C4.54563 17.0503 3.51778 16.774 2.641 16.2651C1.18799 15.4214 0.165535 13.877 0.0166188 12.2194C-0.00213888 11.8683 -0.00501936 11.5166 0.0079859 11.1653C0.137479 9.81749 0.814618 8.52808 1.86567 7.65094C3.057 6.62929 4.72584 6.14264 6.28838 6.43059C6.30295 7.47987 6.26032 8.52808 6.26032 9.57735C5.5465 9.34997 4.71235 9.41372 4.08862 9.84034C3.63229 10.1363 3.28744 10.5719 3.10718 11.0798C2.95826 11.439 3.00089 11.8379 3.00952 12.2194C3.18056 13.3818 4.31578 14.3589 5.52761 14.2531C6.33101 14.2446 7.10095 13.7856 7.51964 13.1135C7.65507 12.8782 7.80668 12.6375 7.81478 12.3607C7.88546 11.0936 7.8574 9.83184 7.86603 8.56474C7.87197 5.70912 7.8574 2.86146 7.87952 0.0148758L7.87898 0.0143445Z" fill="white"/>
</svg>
