<svg width="17" height="10" viewBox="0 0 17 10" fill="none" xmlns="http://www.w3.org/2000/svg">
<path fill-rule="evenodd" clip-rule="evenodd" d="M16.6101 0.677143C16.7277 0.287143 16.6101 0 16.047 0H14.1876C13.7145 0 13.4963 0.247857 13.378 0.521429C13.378 0.521429 12.4324 2.80429 11.093 4.28714C10.6595 4.71714 10.4626 4.85357 10.226 4.85357C10.1077 4.85357 9.92992 4.71714 9.92992 4.32643V0.677143C9.92992 0.208571 9.79959 0 9.40576 0H6.48182C6.18645 0 6.00867 0.217143 6.00867 0.423571C6.00867 0.867143 6.67873 0.97 6.74744 2.21857V4.93143C6.74744 5.52643 6.63907 5.63429 6.40249 5.63429C5.77209 5.63429 4.23858 3.34071 3.32839 0.716428C3.15202 0.205714 2.97352 0 2.49824 0H0.637487C0.106248 0 0 0.247857 0 0.521429C0 1.00857 0.630403 3.42857 2.93598 6.62929C4.47303 8.815 6.63694 10 8.60819 10C9.79038 10 9.93629 9.73714 9.93629 9.28357V7.63143C9.93629 7.105 10.0482 7 10.4229 7C10.6992 7 11.1716 7.13714 12.2752 8.19071C13.536 9.44 13.7435 10 14.4532 10H16.3126C16.8438 10 17.1101 9.73714 16.9571 9.21714C16.7886 8.7 16.1865 7.94929 15.3882 7.05857C14.9547 6.55143 14.3045 6.005 14.1069 5.73143C13.8313 5.38071 13.91 5.22429 14.1069 4.91214C14.1069 4.91214 16.3735 1.75071 16.6094 0.677143H16.6101Z" fill="white"/>
</svg>
